<svg xmlns="http://www.w3.org/2000/svg" viewBox="0 0 98.53 45.89"  width="98.53px" height="45.89px"><title>Ресурс 34</title><g id="Слой_2" data-name="Слой 2"><g id="Design"><path d="M91.45,9.15h2.14c.29,0,.49-.18.3-.45A2.89,2.89,0,0,0,92,7.21a2.71,2.71,0,0,0-2.93,1.26c-.24.51-.2.65.35.67s1.35,0,2,0M58.22,14.47c.31,0,.59,0,.87-.07a2.44,2.44,0,0,0,2.12-2c0-.29.11-.72-.37-.73a7.63,7.63,0,0,0-3.28.34,1.45,1.45,0,0,0-.93,1.5c.09.51.48.78,1.26.86l.32,0M84.51,27.56h4.66c1.11,0,1.2-.1.74-1.16A7.08,7.08,0,0,0,88.8,24.6a5.44,5.44,0,0,0-5-1.63,5.29,5.29,0,0,0-4.75,3.53c-.36.94-.29,1,.67,1,1.59,0,3.18,0,4.78,0M48,31.47h.09c-.12,1.14-.22,2.28-.36,3.41-.06.48-.17,1-.26,1.44l1.66.05h.12l4.79-.68a.87.87,0,0,1,1.13.72,3.06,3.06,0,0,0,2,2.16,7.85,7.85,0,0,0,5.68-.06,1.67,1.67,0,0,0,.42-3,4.76,4.76,0,0,0-1.8-.8c-1.83-.45-3.69-.78-5.52-1.22-2.92-.71-5.85-1.46-7.67-4.19-.05-.08-.16-.12-.24-.18a1,1,0,0,0-.06.23c0,.72,0,1.43,0,2.15m-20.55-.32A7.58,7.58,0,0,0,28.6,36.2a6,6,0,0,0,2,2.08c3,1.61,7,.77,8.32-3.09a11,11,0,0,0,.57-5.45,12.84,12.84,0,0,0-.81-3.3,4.81,4.81,0,0,0-3.41-3,8.48,8.48,0,0,0-2.93-.18,5,5,0,0,0-3.51,2.19,8.7,8.7,0,0,0-1.39,5.72M79.84,17a.76.76,0,0,0,1-.74,14.42,14.42,0,0,0,.08-1.67c0-3,0-6.06-.09-9.09,0-.52.1-.73.63-.71.8,0,1.59,0,2.39,0s.76,0,.76.83c0,3.11,0,6.22,0,9.33,0,.28,0,.56,0,.84s.16.48.5.53c.82.11,1.64.27,2.47.39.1,0,.21-.07.32-.1a1.15,1.15,0,0,0-.14-.31,4.28,4.28,0,0,0-.44-.41,5,5,0,0,1-1.82-3.24c-.29-2.19-.35-4.36,1.14-6.23a5.59,5.59,0,0,1,3.86-2.09,7.79,7.79,0,0,1,2,0,5.44,5.44,0,0,1,3.8,2.33,7.11,7.11,0,0,1,1.2,4.37c0,.85,0,.87-.86.87-1.87,0-3.75,0-5.62,0H89.73c-.82,0-1.15.55-.68,1.2a2.46,2.46,0,0,0,2,1.27c1.17,0,2.21-.08,2.87-1.23a.8.8,0,0,1,.68-.22,16.25,16.25,0,0,1,2.29.53c.53.17.41.59.16,1a5.63,5.63,0,0,1-3.84,2.73c-.66.11-1.34.15-2,.23a1,1,0,0,0-.28.13,2,2,0,0,0,.23.23,27.49,27.49,0,0,1,2.6,1.86,13.47,13.47,0,0,1,4,7,27.08,27.08,0,0,1,.74,6.22c0,.49-.1.64-.57.64-1,0-2.07,0-3.11,0H80a2.22,2.22,0,0,0-1,.23.77.77,0,0,0-.3.66,7,7,0,0,0,2.66,4.09,3.35,3.35,0,0,0,1.32.47,7.44,7.44,0,0,0,5.08-.37,4.38,4.38,0,0,0,2.44-2.44c.24-.72.42-.77,1.16-.56l6,1.75c.72.21.72.23.41.94a11.72,11.72,0,0,1-7.13,6.6,18.17,18.17,0,0,1-5.44,1,15.29,15.29,0,0,1-7.68-1.63,12.08,12.08,0,0,1-4.75-4.53c-.08-.13-.13-.29-.21-.42-.26-.39-.42-.38-.63,0a1.83,1.83,0,0,0-.18.31c-.72,2.58-2.68,3.95-5,4.83a19.1,19.1,0,0,1-7.68,1.22,18.94,18.94,0,0,1-7.27-1.47,9.38,9.38,0,0,1-4.93-5.06,3.06,3.06,0,0,0-.38-.55l-.34.48c-.33.49-.65,1-1,1.47a13.09,13.09,0,0,1-8.78,5.08,18.19,18.19,0,0,1-4.26.14,15.59,15.59,0,0,1-5.69-1.48,11.72,11.72,0,0,1-5.38-5,16.94,16.94,0,0,1-1.56-12.31c.3-1.36.33-1.37-1-1.82a8.18,8.18,0,0,0-5.24-.21,6.08,6.08,0,0,0-4,3.59,9.91,9.91,0,0,0-.7,3.7c0,2.47-.05,4.94,0,7.41,0,1.54.26,3.08.41,4.61,0,.28,0,.47-.34.48H1.24c-1.34,0-1.24.13-1.24-1.2q0-10,0-20.09c0-1.67,0-3.35,0-5,0-.87,0-.88.83-.89,2.39,0,4.78,0,7.17,0,.56,0,.75.1.63.73a8.75,8.75,0,0,0,0,1.91c0,.13.09.34.19.38a.5.5,0,0,0,.39-.17A13.33,13.33,0,0,1,12,18.15a8.57,8.57,0,0,1,3.93-1.1,31.17,31.17,0,0,1,3.47,0,13.35,13.35,0,0,1,2,.27.54.54,0,0,1,.3.41,3,3,0,0,1-.1.93c-.41,1.56-.85,3.11-1.26,4.67,0,.1,0,.22.06.33.1,0,.23-.07.28-.14A30.24,30.24,0,0,1,22.4,21a13.74,13.74,0,0,1,4.88-3.45c.1,0,.24,0,.34-.08l1.32-.6c-.42-.29-.82-.6-1.26-.87-2.06-1.26-2.88-3.25-3.28-5.49A8.41,8.41,0,0,1,24.17,9a9.59,9.59,0,0,1,2.42-6.86,6.21,6.21,0,0,1,4-2,11.57,11.57,0,0,1,4.14.19A5.87,5.87,0,0,1,38.7,3.61c.17.39.34.79.49,1.2s0,.6-.41.67c-.85.15-1.7.35-2.56.48-.5.07-.92.11-1.16-.62a2.82,2.82,0,0,0-2.58-2A3.59,3.59,0,0,0,29.24,5a4.48,4.48,0,0,0-.8,2.42A9.61,9.61,0,0,0,28.66,11a3.75,3.75,0,0,0,4.81,2.64,3.15,3.15,0,0,0,1.9-2.14c.12-.38.23-.54.63-.49.94.11,1.89.17,2.82.32.57.09.69.37.52,1A7.63,7.63,0,0,1,36.89,16c-.47.41-.43.57.16.72A15.8,15.8,0,0,1,42,18.65a13.09,13.09,0,0,1,5,6,3.2,3.2,0,0,0,.23.38,3.48,3.48,0,0,0,.11-.45c.35-3.58,2.39-5.82,5.65-7.06.55-.21,1.13-.33,1.69-.52a.32.32,0,0,0,.06-.28c-.23-.22-.49-.4-.74-.6a3.68,3.68,0,0,1,.85-6,9.74,9.74,0,0,1,4.22-1c.44,0,.88,0,1.31,0,.26,0,.73-.11.73-.19A1.64,1.64,0,0,0,61,7.84a2.06,2.06,0,0,0-1.2-.64,2.21,2.21,0,0,0-2.54,1.07c-.15.3-.38.33-.7.26-.85-.16-1.71-.28-2.57-.42-.59-.1-.65-.25-.41-.78a4.94,4.94,0,0,1,4-2.76,10.59,10.59,0,0,1,4,0,3.48,3.48,0,0,1,3,2.35,4.09,4.09,0,0,1,.17,1.16c0,2,0,3.91,0,5.86,0,.75.12,1.5.17,2.25,0,.23.05.62,0,.67-.87.4-.09.31.1.41.92.46,1.87.86,2.74,1.4A8.72,8.72,0,0,1,71.34,24c.1.33,0,.46-.25.53a6.15,6.15,0,0,1-.94.14c-1.17.14-2.35.29-3.52.42-1,.11-2,.22-3.07.28-.21,0-.6-.19-.62-.35-.3-1.7-1.65-2-3-2.23a6.28,6.28,0,0,0-3.25.49,1.58,1.58,0,0,0-1.09,1.3c-.1.71.05,1.18.72,1.45a26.77,26.77,0,0,0,3.24,1.09c2.62.69,5.34,1,7.83,2.17.92.43,1.77,1,2.65,1.55l.4.22a1.83,1.83,0,0,0,.11-.43,16.53,16.53,0,0,1,1.2-5.89,11.81,11.81,0,0,1,3.43-4.92,12,12,0,0,1,4.6-2.59c.05,0,.07-.13.11-.19Z"/><path d="M79.88,17l-3.23,0c-.82,0-.83,0-.83-.88,0-3.15,0-6.29,0-9.44,0-.32,0-.64,0-1a1,1,0,0,0-.11-.29,1.46,1.46,0,0,0-.17.28c-.24.75-.5,1.49-.7,2.25-.1.36-.17.35-.55.29a7.76,7.76,0,0,0-2.35-.08A2.11,2.11,0,0,0,70,9.86a9.15,9.15,0,0,0-.24,1.88c0,1.55,0,3.1.11,4.65,0,.42-.09.6-.5.58h-.12l-3.18-.15c0-1-.08-2-.09-3q0-4.06,0-8.13c0-.91,0-.91.92-.94l1.91-.06c.81,0,.85,0,1,.79.07.47.22.42.51.19s.34-.2.49-.32a3.46,3.46,0,0,1,2.65-.8c.35,0,.72,0,1.07,0s.77.06,1.16.1c0-.47.1-.94.11-1.41,0-.8,0-1.59,0-2.39,0-.47.19-.62.64-.61.88,0,1.75,0,2.63,0,.57,0,.75.17.74.75q-.07,4.72-.07,9.44c0,2.19.06,4.37.09,6.56Z"/><path d="M40.18,8.7c0-2.51,0-5,0-7.53,0-.85,0-.86.84-.87s1.67,0,2.51,0c.65,0,.6.06.57.7C44,2.54,44,4.09,44,5.64c0,.28.16.35.36.16a4.89,4.89,0,0,1,3.21-1.3c2.77-.19,4.5,1,4.74,3.89.21,2.61,0,5.25.05,7.88,0,.49-.13.73-.67.71-.92,0-1.83,0-2.75,0-.5,0-.66-.21-.57-.65.44-2.13.11-4.29.21-6.43a3,3,0,0,0,0-.36,1.67,1.67,0,0,0-2.34-1.66A3,3,0,0,0,43.95,11c0,1.75,0,3.5,0,5.26,0,.55-.14.8-.74.77-.75,0-1.51,0-2.27,0s-.77,0-.77-.75q0-3.76,0-7.53"/><path d="M82.84,3.3c-2.06,0-2.06,0-2-2,0-1,0-1,1.07-1,.71,0,1.43,0,2.14,0,.39,0,.59.13.57.55,0,.59,0,1.19,0,1.78s-.2.72-.7.68-.71,0-1.07,0"/></g></g></svg>