<svg xmlns="http://www.w3.org/2000/svg" viewBox="0 0 74.89 58.88" width="74.89px" height="58.88px"><title>Ресурс 33</title><g id="Слой_2" data-name="Слой 2"><g id="Design"><g id="kFKW3x.tif"><path d="M4.61,58.88H4.34c0-.09,0-.18,0-.27q0-1.18-.07-2.36Q4.14,52.11,4,48c-.07-2.77-.16-5.53-.21-8.3,0-1.33-.14-2.65-.25-4q-.16-1.76-.32-3.51L3,29.69l-.31-3.4-.23-2.57q-.15-1.67-.31-3.35c-.06-.7-.11-1.41-.2-2.1-.11-.89-.26-1.77-.39-2.65L.85,10.68Q.48,8.18.1,5.67a1.67,1.67,0,0,0-.1-.3q0-.08,0-.16L3.11,5l4.33-.25,3.14-.18L15,4.34l3.09-.18L22.5,3.9l3-.18,3.84-.25,2.73-.18L36.58,3l3.71-.24,4.79-.32c.57,0,1.14-.06,1.7-.13C47.91,2.18,49,2,50.17,1.9l3.28-.4L57.25,1l3.31-.4L64.44.16c.34,0,.67-.1,1-.16h.22c0,.21,0,.42,0,.62q.12,2,.25,4.06.09,1.46.18,2.92l.26,4.14c.06,1,.12,1.91.18,2.87q.15,2.38.3,4.76c.08,1.32.16,2.64.24,4,.12,1.88.25,3.75.35,5.63.07,1.27.19,2.52.35,3.78q.29,2.3.58,4.6c.21,1.68.41,3.36.62,5q.39,3.18.79,6.35.33,2.62.65,5.25c0,.28.06.55.09.85l-.67,0-10,.08c-1.12,0-2.24.06-3.36.12-1.3.07-2.6.17-3.9.26L50,55.48l-3.79.25-2.73.18-3.79.25-2.73.18-3.68.25-3.19.24-3.84.3-3,.24-3.84.31-3,.24-3.78.3-3.06.24-4,.32Zm4-24.69h.31l1.46-.12,4-.36,3.4-.29c1.52-.14,3-.26,4.56-.43.9-.1,1.8-.22,2.68-.41a11.75,11.75,0,0,0,4.73-2.25A8.51,8.51,0,0,0,32,27.72a13.47,13.47,0,0,0,1.64-5.35,14.24,14.24,0,0,0-.15-3.73A12.59,12.59,0,0,0,31.08,13a10.65,10.65,0,0,0-6.2-4,13.62,13.62,0,0,0-3.07-.27c-1.47,0-2.94.09-4.41.23l-4.67.4-5.54.49-.71.07L6.84,14l3.68-.32,1.41,16.08-3.68.33ZM47.49,32a19.94,19.94,0,0,0,3.13-.27,15.63,15.63,0,0,0,4.6-1.47,11.91,11.91,0,0,0,6.47-9.95,13.45,13.45,0,0,0-.32-3.83,11.92,11.92,0,0,0-4.83-7.29A12.37,12.37,0,0,0,49.87,7a18.78,18.78,0,0,0-6.76.92,12.14,12.14,0,0,0-5,3.14,11.94,11.94,0,0,0-3.31,8.85A12.7,12.7,0,0,0,35.55,24a11.88,11.88,0,0,0,6.2,6.83A13.22,13.22,0,0,0,47.49,32ZM29.72,44.49l1.57-.21-1.4-10.62c-.78.1-1.53.18-2.29.31l-.33,7c-.1-.34-.19-.72-.31-1.08q-.88-2.69-1.78-5.38c0-.07-.05-.13-.09-.2l-2.23.3,1.4,10.62c.54-.08,1-.11,1.56-.23l-1.1-8h0l2.57,7.85.86-.11.13-2c0-.69.09-1.37.13-2.06s.07-1.35.12-2,.06-1.34.16-2C29,39.2,29.37,41.83,29.72,44.49ZM52.25,44l1.56-.21c-.34-2.21-.51-4.4-1-6.59l1.63,3.17,1.61,3.13,1.57-.21-.47-3.55c-.16-1.18-.31-2.37-.47-3.55s-.3-2.34-.47-3.52l-1.57.21c.34,2.32.55,4.63,1,6.94L52.35,33.2l-1.51.2Zm-29.58-.76c-.06-.51-.13-1.05-.2-1.59l-.56-4.3a3.76,3.76,0,0,0-.32-1.17,2.23,2.23,0,0,0-1.74-1.32,3.22,3.22,0,0,0-2.12.39,2.17,2.17,0,0,0-1.07,1.49,3.1,3.1,0,0,0,0,1.08q.37,2.82.75,5.64a3.66,3.66,0,0,0,.48,1.43,2.06,2.06,0,0,0,1.41,1,3.36,3.36,0,0,0,2-.2,2.16,2.16,0,0,0,1.34-1.65C22.63,43.82,22.64,43.55,22.67,43.26Zm21.53,1.82-.62-4.74,1.71-.23.63,4.75,1.68-.22L46.2,34l-1.68.23.57,4.33-1.71.23c-.21-1.46-.37-2.89-.59-4.33l-1.56.21-.09,0,1.4,10.59,1.3-.17Zm17.71-6.4s0,.06,0,.08c.08.56.16,1.13.22,1.69a1.45,1.45,0,0,1,0,.48.79.79,0,0,1-.77.62.78.78,0,0,1-.84-.42,1.92,1.92,0,0,1-.17-.54c-.07-.43-.12-.86-.17-1.29l-.47-3.55c-.06-.42-.12-.84-.16-1.26a.87.87,0,0,1,.85-1.08.76.76,0,0,1,.85.52,5.2,5.2,0,0,1,.17.82c0,.25.07.49.11.76l1.61-.21c-.06-.43-.11-.84-.17-1.25a3.13,3.13,0,0,0-.49-1.28A1.91,1.91,0,0,0,61.31,32a3.3,3.3,0,0,0-1.4,0,2.37,2.37,0,0,0-2.07,2.54A9.47,9.47,0,0,0,58,35.56c.22,1.68.43,3.35.66,5a3.7,3.7,0,0,0,.54,1.55,2,2,0,0,0,1.28.89,2.7,2.7,0,0,0,1.16,0,1.68,1.68,0,0,0,1.15-.87l.13-.22.42.66.8-.11c-.25-1.8-.46-3.57-.72-5.35l-2.68.35.18,1.35ZM15.62,38a3.34,3.34,0,0,0-.37-1A2.43,2.43,0,0,0,14,35.89a2.68,2.68,0,0,0-3.31,1.22A2.82,2.82,0,0,0,11,40.2a5,5,0,0,0,1.08,1.06c.48.37,1,.72,1.46,1.09a10.06,10.06,0,0,1,.81.68,1.63,1.63,0,0,1,.5,1,1,1,0,0,1-.57,1.09,1.05,1.05,0,0,1-1.33-.26,3.74,3.74,0,0,1-.35-.7,2.79,2.79,0,0,1-.1-.36l-1.55.45a3.42,3.42,0,0,0,.62,1.57,2.43,2.43,0,0,0,1.42.94,3.07,3.07,0,0,0,1.74-.08,2.39,2.39,0,0,0,1.74-2,3.21,3.21,0,0,0-.92-2.81,9.48,9.48,0,0,0-1-.86c-.44-.34-.92-.64-1.36-1a5.8,5.8,0,0,1-.78-.75,1.5,1.5,0,0,1-.36-1,.88.88,0,0,1,.7-.93.85.85,0,0,1,1.06.48,3.47,3.47,0,0,1,.15.4c0,.08.05.17.08.28ZM33.87,39.6,36,39.28l-.2-1.48-2.16.3c-.14-1.13-.3-2.23-.42-3.34l2.54-.36c-.06-.52-.11-1-.21-1.51l-4.23.58c.24,1.8.47,3.56.71,5.32s.46,3.52.7,5.3l3.84-.52L36.4,42l-2.16.29Zm3.2-2.87,1.2,9.14L40,45.64l-1.2-9.13,1.8-.23-.2-1.48-1.9.25c-.62.08-1.24.15-1.85.24s-1.25.14-1.87.26L34.93,37Zm13.7,7.48-1.4-10.62-1.7.23c0,.74,1.34,10.41,1.44,10.62Zm5.68,5.85L55,48.43l.25-.19a1.54,1.54,0,0,0,.61-1.16,1.66,1.66,0,0,0-1.49-1.9,3.3,3.3,0,0,0-.76,0c-.6.06-1.2.14-1.8.22l-.77.11.64,5.15a14.24,14.24,0,0,0,1.44-.18l-.18-1.54.61-.08,1.23,1.43ZM44.92,48.51a2.57,2.57,0,0,0,.77,1.91,2.74,2.74,0,0,0,2.81.69,2.7,2.7,0,0,0,1.19-4.58,2.75,2.75,0,0,0-2.52-.67A2.71,2.71,0,0,0,44.92,48.51Zm16.44-3.61-.06-.07-.09-.06a3.15,3.15,0,0,0-2-.39,2.72,2.72,0,0,0-2.48,3,2.57,2.57,0,0,0,1.89,2.33,3.36,3.36,0,0,0,3-.57c.17-.12.31-.27.46-.4l-.29-2.34-2.38.29.13,1,1-.11.07.62a1.59,1.59,0,0,1-1.33.27,1.4,1.4,0,0,1-1-1.47,1.35,1.35,0,0,1,1.2-1.35,1.79,1.79,0,0,1,1,.19l.28.14ZM43,50.24l.18,1.44,1.47-.18-.09-.73-.09-.71Z"/><path d="M74.89,52.8a3.25,3.25,0,0,1-.13.41,1.66,1.66,0,0,1-1.44,1,1.68,1.68,0,1,1,1.44-2.37c.05.12.09.25.13.37Zm-1.67,1.05a1.28,1.28,0,0,0,1.26-1.35,1.29,1.29,0,1,0-1.26,1.35Z"/><path d="M18.24,29.2l-1.4-16,.46-.06c.78-.05,1.57-.13,2.35-.15a9.37,9.37,0,0,1,2.74.32,5.32,5.32,0,0,1,3,2.2A9,9,0,0,1,26.81,19,13.72,13.72,0,0,1,27,22.87a7.85,7.85,0,0,1-.64,2.51,5.49,5.49,0,0,1-3.48,3.12,13.26,13.26,0,0,1-2.54.53c-.61.07-1.22.12-1.84.17Z"/><path d="M41.52,18.89a8.6,8.6,0,0,1,.65-3.52,6.38,6.38,0,0,1,11.29-.89,8.75,8.75,0,0,1,1.29,3.4,12.14,12.14,0,0,1,.17,3.27A7,7,0,0,1,52.53,26a6.23,6.23,0,0,1-4.39,1.49A6.14,6.14,0,0,1,43.33,25a8.38,8.38,0,0,1-1.54-3.52A14,14,0,0,1,41.52,18.89Z"/><path d="M18.29,37.28c0-.77.47-1.17,1.13-1a.75.75,0,0,1,.6.57,6.42,6.42,0,0,1,.16.88q.27,2,.53,4,.1.77.19,1.53a1.69,1.69,0,0,1,0,.32.89.89,0,0,1-1.19.81.75.75,0,0,1-.5-.49,3.69,3.69,0,0,1-.16-.68c-.23-1.71-.45-3.42-.67-5.13Z"/><path d="M52.83,47.64l-.15-1.22a7.46,7.46,0,0,1,1.2-.12A.6.6,0,0,1,54,47.45a4.22,4.22,0,0,1-.66.12Z"/><path d="M47.81,49.88a1.39,1.39,0,0,1-1.33-1.68,1.28,1.28,0,0,1,1.35-1.11,1.37,1.37,0,0,1,1.28,1.29A1.32,1.32,0,0,1,47.81,49.88Z"/><path d="M74,53.38h-.39c0-.09-.07-.19-.1-.29-.09-.34-.15-.38-.55-.34v.62H72.6a8.33,8.33,0,0,1,0-1.64,2.11,2.11,0,0,1,1,0,.41.41,0,0,1,.32.54,1.46,1.46,0,0,1-.25.33C73.9,52.75,73.87,53.07,74,53.38ZM73,52v.46a1.86,1.86,0,0,0,.41-.05.26.26,0,0,0,.14-.2.28.28,0,0,0-.13-.2A.39.39,0,0,0,73,52Z"/></g></g></g></svg>