<svg xmlns="http://www.w3.org/2000/svg" viewBox="0 0 119.41 32.29" width="119.41px" height="32.29px"><title>Ресурс 31</title><g id="Слой_2" data-name="Слой 2"><g id="Design"><path d="M13.66,20.44a1.28,1.28,0,0,0,0-.44c-.16-.39-.26-1-.55-1.1a1.3,1.3,0,0,0-1.17.29,20.32,20.32,0,0,0-2.08,2.46c-.35.48-.15.73.45.68s1.31-.17,2-.26c1.33-.18,1.39-.25,1.39-1.62m11.8-2.55a6.24,6.24,0,0,0,.82-.37,18,18,0,0,0,2.52-1.79,23.5,23.5,0,0,0,2.38-2.89,1.55,1.55,0,0,0,.2-1.73,1.87,1.87,0,0,0-3.45-.16,5.17,5.17,0,0,0-.51,1q-.76,2.07-1.47,4.17c-.18.52-.29,1.07-.48,1.8m1.18,3.57c.66.25,1.31.53,2,.73,1.35.39,2.71.73,4.06,1.09.93.25,1.14.64.85,1.57-.55,1.75-1.27,2.13-3.06,1.7a24.54,24.54,0,0,1-6.57-2.86,6.85,6.85,0,0,0-.31.82c-.42,1.75-.81,3.51-1.24,5.25a1.78,1.78,0,0,1-3,.86,1.84,1.84,0,0,1-.29-1.41c.28-1.6.68-3.18,1-4.77,0-.18.05-.37.1-.68-1.25.37-2.41.66-3.53,1.07-.31.11-.54.55-.73.89a14.32,14.32,0,0,1-4.25,5C6.92,34,1.51,31.87.34,26.22A17.57,17.57,0,0,1,2.49,14a16.62,16.62,0,0,1,7.78-7.53c2.27-1,4.53-1.15,6.64.42a4.38,4.38,0,0,1,.93,5.55,2,2,0,0,1-1.08.66A2.81,2.81,0,0,1,15.59,13c-1.29-.23-1.67-.78-1.46-2.08,0-.24.09-.48.13-.73.16-1-.14-1.31-1-.89a15.77,15.77,0,0,0-3.74,2.17A16.08,16.08,0,0,0,3.73,24.9a5.88,5.88,0,0,0,.35,1.66A3.15,3.15,0,0,0,8.3,28.71a6.51,6.51,0,0,0,3.65-3.07c-.72.07-1.29.15-1.86.17a6.88,6.88,0,0,1-1.54,0,2.71,2.71,0,0,1-2.37-3.13,8.69,8.69,0,0,1,4.88-6.8c1.43-.76,4.34,0,5.43,1.15a3.61,3.61,0,0,1,.78,2.48c0,.46,0,.92,0,1.58,1.36-.45,2.57-.81,3.74-1.29.25-.1.38-.59.48-.93C22.34,16,23.18,13.2,24,10.37c.06-.19.15-.36.22-.55,1.35-3.57,4.42-3.85,7-2.57a11.26,11.26,0,0,1,2.79,2c1.63,1.6,1.63,3.74.15,5.77a19.62,19.62,0,0,1-6.23,5.37c-.44.26-.87.53-1.31.8v.23"/><path d="M103.76,7.44a3.92,3.92,0,0,0-1.1.19A22.44,22.44,0,0,0,99.9,9.31a1.83,1.83,0,0,1-3-.6,11.14,11.14,0,0,1-.5-1.31,1.52,1.52,0,0,0-1.24-1,6.17,6.17,0,0,0-5.38,2.35,3.38,3.38,0,0,0-.2,3.78c1,1.68,2.2,3.26,3.33,4.87.55.79,1.19,1.51,1.71,2.32,1.4,2.17.89,4-1.5,5C91,25.58,88.9,26.29,86.75,27a2.56,2.56,0,0,1-2.92-.88,1.54,1.54,0,0,1,.68-2.68c1.34-.4,2.73-.61,4.1-.93A13.51,13.51,0,0,0,90.32,22c1-.39,1.21-1,.52-1.87-1-1.22-2.05-2.35-2.92-3.63a17.21,17.21,0,0,1-2.11-3.87,6.81,6.81,0,0,1,2.73-8.06,10.54,10.54,0,0,1,7.54-2A4.39,4.39,0,0,1,99,4.08a1.18,1.18,0,0,0,1.37.36q8.18-2.13,16.38-4.2A8,8,0,0,1,118.42,0c.7,0,1,.3,1,1a2.05,2.05,0,0,1-1.59,2.28c-2.07.62-4.16,1.23-6.26,1.73a5.25,5.25,0,0,0-3.9,3.36,85.56,85.56,0,0,0-5.51,17.74c-.22,1.22-.64,1.59-1.74,1.52s-1.59-.53-1.54-1.57a29.27,29.27,0,0,1,.46-4A87.43,87.43,0,0,1,103.43,8.5c.11-.29.18-.59.32-1.06"/><path d="M55.82,18.82c.23.07.33.13.41.11,1.06-.2,2.13-.38,3.18-.65a.92.92,0,0,0,.45-.71c.06-2.12.09-4.24.1-6.35,0-.62-.1-1.23-.15-1.85l-.3-.06-3.69,9.52m7.74-7.62c0,1.78,0,3.55,0,5.33a.85.85,0,0,0,.57,1A2.15,2.15,0,0,1,65,19.73a1.16,1.16,0,0,1-.74.49c-.69.15-.86.55-.89,1.22q-.14,2.87-.41,5.74c-.11,1.09-.65,1.56-1.47,1.49-1.46-.13-2.17-.76-2.1-1.91.09-1.42.21-2.85.32-4.27,0-.58-.13-.84-.77-.66-.85.25-1.71.47-2.57.68A4,4,0,0,0,53.64,25c-.16.36-.31.73-.48,1.08a2.1,2.1,0,0,1-2.75,1A1,1,0,0,1,49.64,26a10.91,10.91,0,0,1,.4-1.87A164.57,164.57,0,0,1,56.43,7.22c.2-.45.43-.89.65-1.33a1.89,1.89,0,0,1,1.3-1.08,3.8,3.8,0,0,0,1.5-.89,2.11,2.11,0,0,1,3.54,1,5.58,5.58,0,0,1,.14,1.39c0,1.63,0,3.26,0,4.89"/><path d="M38.54,11a2.16,2.16,0,0,1-1.12-2.84,1.89,1.89,0,0,1,.8-.58,17.37,17.37,0,0,1,2-.91,2.94,2.94,0,0,1,1.43-.23A11.21,11.21,0,0,0,46.16,6c.86-.19,1.74-.37,2.62-.48a2.34,2.34,0,0,1,2.32,2.78c-.09.25-.54.48-.86.54-2,.38-4.07.74-6.12,1a1.86,1.86,0,0,0-1.73,1.53c-.29,1.17-.7,2.31-1,3.47-.22.77-.07.94.68.72,1.34-.41,2.66-.88,4-1.32l.76-.28c1.26-.43,1.72-.25,2.1.81.47,1.33.16,2.16-1,2.56-2.2.77-4.41,1.55-6.63,2.28a2.09,2.09,0,0,0-1.51,1.65c-.21.94-.47,1.87-.62,2.81-.18,1.13.09,1.38,1.19,1.12,1.46-.35,2.9-.77,4.35-1.15a6.63,6.63,0,0,1,.95-.16,1.72,1.72,0,0,1,2.16,1.79,1.23,1.23,0,0,1-.56,1c-2.71.88-5.44,1.68-8.18,2.48a2.82,2.82,0,0,1-.88,0c-2-.08-3.18-1.17-3-3.13a43.54,43.54,0,0,1,1.08-6c.71-3,1.52-6.05,2.3-9.12"/><path d="M81,3.58c.62,0,1.1,0,1.55.12a2,2,0,0,1,1.68,2,1.76,1.76,0,0,1-1.7,1.87,15.51,15.51,0,0,1-1.77,0c-1,0-1.92,0-2.87,0A2.25,2.25,0,0,0,75.8,9.57c-.86,3.13-1.71,6.26-2.66,9.37-.83,2.73-1.75,5.43-2.69,8.13a1.92,1.92,0,0,1-3.17,1,1.16,1.16,0,0,1-.54-1.45c.88-2.72,1.82-5.41,2.59-8.16.81-2.91,1.47-5.86,2.16-8.81.22-.93,0-1.1-.93-1s-1.76.22-2.64.33C66.8,9.07,66.27,8.73,66,7.7a1.51,1.51,0,0,1,1.15-2.05A36.55,36.55,0,0,1,70.94,5C74.35,4.47,77.77,4,81,3.58"/><path d="M82.63,13.2c-.34,1.38-.62,2.79-1,4.15q-1.33,4.38-2.77,8.73a2.15,2.15,0,0,1-3.38.87,1.42,1.42,0,0,1-.25-1.19c.53-2,1.2-3.91,1.72-5.88.67-2.5,1.26-5,1.85-7.52.27-1.14.63-1.4,1.76-1.14a5.45,5.45,0,0,1,.91.29,1.76,1.76,0,0,1,1.18,1.7"/></g></g></svg>