<?xml version="1.0" encoding="utf-8"?>
<!-- Generator: Adobe Illustrator 21.1.0, SVG Export Plug-In . SVG Version: 6.00 Build 0)  -->
<svg version="1.1" id="Слой_1" xmlns="http://www.w3.org/2000/svg" xmlns:xlink="http://www.w3.org/1999/xlink" x="0px" y="0px"
	 viewBox="0 0 67.2 43.5" style="enable-background:new 0 0 67.2 43.5;" xml:space="preserve" width="67.2px" height="43.5px">
<title>Ресурс 20</title>
<g id="Слой_2">
	<g id="Design">
		<path d="M47.1,0v20.1h20.1V0H47.1z M63.2,16.1h-8v-4h-4V4h12L63.2,16.1z"/>
		<path d="M0,20.1v-4.5h5.4v4.5L0,20.1z M5.4,23.2V43H0V23.2H5.4z"/>
		<path d="M14.6,38.2c1,0.8,2.2,1.3,3.5,1.2c1,0,2-0.3,2.8-0.8c0.7-0.4,1.2-1,1.5-1.7h4.8c-0.5,2.1-1.8,3.9-3.5,5.1
			c-1.7,1.1-3.7,1.6-5.7,1.5c-1.4,0-2.9-0.2-4.2-0.8c-1.2-0.5-2.3-1.2-3.2-2.1c-0.9-0.9-1.6-2.1-2-3.3C8,36,7.8,34.5,7.8,33.1
			c0-1.4,0.2-2.8,0.7-4.1c0.9-2.5,2.8-4.5,5.3-5.5c1.3-0.5,2.7-0.8,4.1-0.8c1.5,0,3,0.3,4.4,1c1.2,0.6,2.3,1.5,3.1,2.6
			c0.8,1.1,1.4,2.4,1.7,3.7c0.4,1.4,0.5,2.9,0.4,4.4H13.2C13.2,35.8,13.6,37.2,14.6,38.2z M20.7,27.8c-0.8-0.8-1.9-1.2-3-1.1
			c-0.7,0-1.5,0.1-2.2,0.4c-0.5,0.3-1,0.6-1.4,1.1c-0.3,0.4-0.6,0.9-0.7,1.4c-0.1,0.4-0.2,0.9-0.2,1.3H22
			C21.9,29.8,21.4,28.7,20.7,27.8L20.7,27.8z"/>
		<path d="M28,23.2h6.2l3.5,5.2l3.4-5.2h6l-6.5,9.2L47.9,43h-6.2l-4.1-6.2L33.4,43h-6.1l7.1-10.4L28,23.2z"/>
	</g>
</g>
<text transform="matrix(1 0 0 1 -142 -252)" style="font-family:'MyriadPro-Regular'; font-size:12px;">УAловите свое</text>
</svg>
