<svg xmlns="http://www.w3.org/2000/svg" viewBox="0 0 185.94 33.17"  width="185.94px" height="33.17px"><title>Ресурс 28</title><g id="Слой_2" data-name="Слой 2"><g id="Design"><path d="M6.79,18.73a34.2,34.2,0,0,1,.68,5.87c0,3.87-1.3,6.65-3.16,6.65-1.51,0-1.51-1.62-1.51-2.72,0-3.31,1.7-6.8,4-9.8ZM6.64,18c-.4.51-.8,1-1.17,1.56h0c-1.84-1.8-3.31-5.66-3.31-8.81,0-7.83,5.2-10,5.46-10s.27.09.27.62c0,.8-2.24,4.52-2.24,9.75a43.21,43.21,0,0,0,1,6.9Zm14-4.85c-1-.06-2-.27-2-.92a.42.42,0,0,1,.47-.41c.69,0,1.19.59,1.5,1.33Zm6.86-3.43c0-2.19-.18-8.33,1.48-8.33.65,0,.74.71.74,1.95A10.34,10.34,0,0,1,27.53,9.7Zm28.41,7.15a7.74,7.74,0,0,1,.27,2c0,.56-.3,1-.62,1s-.47-.35-.47-.95a3.79,3.79,0,0,1,.8-2Zm13.42-4a4,4,0,0,1-.83.09c-.8,0-1.27-.32-1.27-.86a.6.6,0,0,1,.56-.53c.64,0,1.17.56,1.54,1.29Zm25.3,5v0a3.41,3.41,0,0,0-3.25-2.46c-.5,0-.77.44-.77,1,0,1,1.54,1.6,3,1.6a7.51,7.51,0,0,0,1-.09m11.35.87h0c-2.28,3-4,6.48-4,9.8,0,1.09,0,2.72,1.51,2.72,1.86,0,3.16-2.78,3.16-6.65a34.18,34.18,0,0,0-.68-5.87m13.88-5.62h0c-.32-.74-.81-1.33-1.5-1.33a.42.42,0,0,0-.47.41c0,.66.93.86,2,.92m6.86-3.42h0A10.34,10.34,0,0,0,129,3.31c0-1.24-.09-1.95-.74-1.95-1.66,0-1.5,6.17-1.48,8.34m28.41,7.13h0a3.8,3.8,0,0,0-.81,2c0,.59.12.95.47.95s.62-.41.62-1a7.73,7.73,0,0,0-.28-2m-50.88,3.29c-.73-.56-1.42-1.51-2.46-2.23-.88-.6-3.19.05-5.2.41h0c-.17,1.16-.57,2.3-1,2.3s-.37-.92-.7-2h0a14.58,14.58,0,0,1-2.12.28c-1.39,0-4.58-.62-4.58-2.72,0-1.18,1.33-1.65,2.6-1.65,1.45,0,3.75,1,4.31,2.16.15-2-1.3-3.1-1.3-3.43s1.57-.92,1.71-.92c.62,0,1.15,2.84,1.15,4.84,0,.09,0,.19,0,.29h0a15.91,15.91,0,0,1,4.41-.5,10.84,10.84,0,0,1-1.86-6.44C99.25,3.28,106.48,0,107.61,0c.5,0,.62.12.62.41a15.68,15.68,0,0,0-.95,6.26,65.19,65.19,0,0,0,.71,8.85c2.88-3,5.95-5.07,7.82-5.07.06,0,.09.12.09.24A4.93,4.93,0,0,0,114,14.62c0,2.22,1.36,4.22,3.13,4.22,2,0,3.16-2.13,3.16-3.69a5.27,5.27,0,0,0-.11-1h0c-2.81-.06-3.7-1.12-3.7-2.12a1.6,1.6,0,0,1,1.57-1.48,3.5,3.5,0,0,1,3.12,2.63h.55a5.66,5.66,0,0,0,2.79-1.26h0c0-1.21,0-2.39,0-3.31,0-4.22,1.42-8.06,3.84-8.06,1.24,0,1.89,1,1.89,2.36a12.34,12.34,0,0,1-3.45,8v0c0,3.61-.13,5.58.39,5.58s2.57-6.29,5.05-6.29.47,8,1.57,8c1.33,0,4.37-8.15,6.41-8.15,2.84,0,.89,6.82,1.86,6.82s2.51-6.82,5.14-6.82c3.34,0,.21,8.68,1.92,8.68,1.3,0,4.61-9,5.35-9s-.3.71,2,4a4.78,4.78,0,0,1,.26.42h0c2.35-2.17,5.49-4.05,7.79-4.05.41,0,.65.06.65.35,0,.68-2,1.24-2,4.61,0,2.07,1.42,3.75,3,3.75,2,0,3.1-2,3.1-3.6a5,5,0,0,0-.24-1.4h0a4.91,4.91,0,0,1-1.34.2,2.27,2.27,0,0,1-2.48-2.16,1.45,1.45,0,0,1,1.51-1.33,3.51,3.51,0,0,1,3.09,2h0c1.85-.8,3.54-2.34,4.68-2.34,2.81,0,1.21,6.09,1.86,6.09s2.87-6.32,5.11-6.32c1.77,0,1.62,2.36,1.62,3.43,0,2.42-.56,5.7.33,5.7.62,0,2.19-2.57,2.39-2.57s.24.06.24.33c0,.5-2.54,4.31-3.93,4.31-2,0-1.83-3.07-1.83-4,0-.77.24-4.73-.35-4.73s-1.59,2.57-2.66,4.46-1.62,4.08-2.72,4.08c-1.45,0-1.15-2-1.15-4,0-2.6.33-5.11-.5-5.11-.38,0-1.41.9-2.75,1.54h0a5.92,5.92,0,0,1,.21,1.62c0,1.65-.86,5.91-4.84,5.91a5,5,0,0,1-5.05-5.11c0-2.69,1.51-3.51,2.36-4.46-1.47.24-3.88,1.74-5.74,3.46v0a7.7,7.7,0,0,1,.48,2.69c0,1.92-1.21,3.25-2.45,3.25a1.56,1.56,0,0,1-1.65-1.59A5.77,5.77,0,0,1,154.89,16h0c-.47-1.28-1.14-2.22-1.5-2.22-.74,0-2.89,6.94-5.61,6.94-3,0-.92-8.45-1.92-8.45s-3.84,8.45-5.49,8.45c-2.33,0-.24-8.3-1.27-8.3-1.33,0-4.4,8.3-6.47,8.3-2.92,0-.74-8.18-1.95-8.18C130,12.55,129,14.77,128,17c-.86,1.77-1.36,3.63-2.27,3.63s-1-.32-1-3.07c0-.87-.06-2.79-.11-4.77h0A8.17,8.17,0,0,1,121.37,14h0a5.78,5.78,0,0,1,0,.66c0,2-.8,6.14-4.87,6.14-3.07,0-4.76-2.33-4.76-5.32A5.32,5.32,0,0,1,113.28,12a25.9,25.9,0,0,0-5.18,4.28v0a31.94,31.94,0,0,1,.34,3.91c0,8.71-3.81,13-5.85,13-1.27,0-1.95-1.68-1.95-3.4,0-3,1.51-6.49,3.64-9.65m.41-.59c.37-.53.76-1,1.16-1.54l0,0a43.19,43.19,0,0,1-1-6.9c0-5.23,2.27-8.95,2.27-9.75,0-.53.09-.62-.3-.62s-5.46,2.22-5.46,10c0,3.16,1.47,7,3.31,8.81m63.9-6.66h0c-.38-.72-.91-1.29-1.54-1.29a.6.6,0,0,0-.56.53c0,.53.5.86,1.27.86a4,4,0,0,0,.83-.09M14.06,12a5.34,5.34,0,0,0-1.54,3.54c0,3,1.71,5.32,4.78,5.32,4.08,0,4.87-4.16,4.87-6.14a5.85,5.85,0,0,0,0-.66,8.16,8.16,0,0,0,3.17-1.28h0c0,2,.11,3.9.11,4.77,0,2.75.18,3.07,1,3.07s1.42-1.86,2.27-3.63c1-2.22,2.07-4.43,2.72-4.43,1.21,0-1,8.18,1.95,8.18,2.07,0,5.14-8.3,6.47-8.3,1,0-1.06,8.3,1.24,8.3,1.68,0,4.55-8.45,5.52-8.45s-1.06,8.45,1.92,8.45c2.69,0,4.87-6.94,5.61-6.94.36,0,1,.93,1.49,2.2v0a5.76,5.76,0,0,0-1.52,3.11,1.56,1.56,0,0,0,1.65,1.59c1.24,0,2.45-1.33,2.45-3.25a7.69,7.69,0,0,0-.48-2.7h0c1.86-1.72,4.26-3.22,5.71-3.47-.83.95-2.33,1.77-2.33,4.46a5,5,0,0,0,5.05,5.11c4,0,4.84-4.25,4.84-5.91a5.92,5.92,0,0,0-.22-1.63h0c1.35-.64,2.38-1.54,2.76-1.54.83,0,.5,2.51.5,5.11,0,1.95-.3,4,1.15,4,1.09,0,1.62-2.16,2.72-4.08s2.22-4.46,2.66-4.46.35,4,.35,4.73c0,1-.18,4,1.83,4,1.36,0,3.9-3.81,3.9-4.31,0-.27,0-.33-.21-.33s-1.77,2.57-2.39,2.57c-.89,0-.32-3.28-.32-5.7,0-1.06.15-3.43-1.62-3.43-2.24,0-4.43,6.32-5.11,6.32s.94-6.08-1.86-6.08c-1.14,0-2.84,1.55-4.69,2.35h0a3.51,3.51,0,0,0-3.09-2,1.45,1.45,0,0,0-1.51,1.33A2.26,2.26,0,0,0,68.35,14a5,5,0,0,0,1.37-.2h0a5,5,0,0,1,.24,1.4c0,1.57-1.06,3.6-3.1,3.6-1.6,0-3-1.68-3-3.75,0-3.37,2-3.93,2-4.61,0-.3-.24-.35-.68-.35-2.28,0-5.41,1.88-7.76,4.05h0a4.78,4.78,0,0,0-.26-.42c-2.27-3.25-1.39-4-2-4s-4,9-5.35,9c-1.71,0,1.42-8.68-1.92-8.68-2.63,0-4.14,6.82-5.14,6.82s1-6.82-1.86-6.82c-2,0-5.08,8.15-6.41,8.15-1.12,0,1-8-1.57-8s-4.43,6.29-5.05,6.29-.41-2-.39-5.57v0a12.35,12.35,0,0,0,3.45-8C31,1.54,30.34.5,29.09.5c-2.42,0-3.84,3.84-3.84,8.06,0,.92,0,2.1,0,3.31h0a5.66,5.66,0,0,1-2.79,1.26H22a3.51,3.51,0,0,0-3.15-2.63A1.6,1.6,0,0,0,17.28,12c0,1,.89,2.06,3.69,2.12h0a5.29,5.29,0,0,1,.11,1c0,1.57-1.15,3.69-3.19,3.69-1.77,0-3.1-2-3.1-4.22a4.93,4.93,0,0,1,1.89-3.93c0-.12,0-.24-.09-.24-1.87,0-4.93,2.06-7.82,5.06h0a65.1,65.1,0,0,1-.71-8.84A16.13,16.13,0,0,1,9,.41C9,.12,8.89,0,8.39,0,7.27,0,0,3.28,0,10.55c0,5.59,3.08,8.07,5.06,9.58h0c-2.12,3.15-3.64,6.62-3.64,9.65,0,1.71.68,3.4,1.95,3.4,2,0,5.85-4.25,5.85-13a32.05,32.05,0,0,0-.34-3.92h0A25.87,25.87,0,0,1,14.06,12"/></g></g></svg>