<svg xmlns="http://www.w3.org/2000/svg" viewBox="0 0 197.98 32.3" width="197.98px" height="32.3px"><title>Ресурс 27</title><g id="Слой_2" data-name="Слой 2"><g id="Design"><path d="M3.3,20.35c-.64-.18-.87-.71-.91-1.41V7.77L0,8.53,0,19.76c.35,1.29.92,1.7,1.57,1.74A1.65,1.65,0,0,0,3.3,20.35"/><path d="M7.36,11.59H5.11q0,3.28,0,6.56c.08,1.94,1.1,3,3.23,3a4.06,4.06,0,0,0,2.78-.88c0,.24,0,.48,0,.72h2.25l0-9.39H11.12q0,3.24,0,6.48c-1,1.79-3.54,1.43-3.73,0Z"/><path d="M19.14,20.35c-.64-.18-.87-.71-.91-1.41V7.77l-2.36.76q0,5.61,0,11.22c.35,1.29.92,1.7,1.57,1.74a1.65,1.65,0,0,0,1.73-1.15"/><path d="M23.09,11.59H20.85q0,3.28,0,6.56c.08,1.94,1.1,3,3.23,3a4.06,4.06,0,0,0,2.78-.88c0,.24,0,.48,0,.72H29.1l0-9.39H26.86q0,3.24,0,6.48c-1,1.79-3.54,1.43-3.73,0Z"/><path d="M34.93,20.35c-.64-.18-.87-.71-.91-1.41V7.77l-2.36.76,0,11.22c.35,1.29.92,1.7,1.57,1.74a1.65,1.65,0,0,0,1.73-1.15"/><path d="M38.42,17h6.66a5.54,5.54,0,0,0,.18-1.33c0-2.32-1.49-4.27-4.53-4.28C37.31,11.43,36,14,36,16.35c0,3,1.48,4.73,4.76,4.81a4.93,4.93,0,0,0,3.46-1l-1-1.69a3.76,3.76,0,0,1-2.28.77A2.26,2.26,0,0,1,38.42,17m.05-1.69a2.27,2.27,0,0,1,4.51,0Z"/><path d="M46.83,11.59l0,9.41h2.46q0-3.37,0-6.73c.55-1.27,2.72-1.09,3,0V21h2.29l0-6.7a1.68,1.68,0,0,1,3.18.55l0,6.19H60V14c-1-3.12-4-3.07-6-1.5a3.68,3.68,0,0,0-5-.1l-.48-.75Z"/><path d="M72.28,11.59l0,9.41H74.7q0-3.37,0-6.73c.55-1.27,3.23-1.09,3.56,0V21h2.29c0-2.23,0-4.44,0-6.67-.1-2.42-3.53-4.07-6.09-2l-.48-.75Z"/><path d="M66.1,19.26c-2.72,0-3-5.94,0-5.93s2.7,5.93,0,5.93m0-7.86c-6,0-6.31,9.79,0,9.79s6-9.84,0-9.79"/><path d="M156.47,20.35c-.64-.18-.87-.71-.91-1.41V7.77l-2.36.76,0,11.22c.35,1.29.92,1.7,1.57,1.74a1.65,1.65,0,0,0,1.73-1.15"/><path d="M160,17h6.66a5.54,5.54,0,0,0,.18-1.33c0-2.32-1.49-4.27-4.53-4.28-3.42,0-4.68,2.61-4.71,4.92,0,3,1.48,4.73,4.76,4.81a4.93,4.93,0,0,0,3.46-1l-1-1.69a3.76,3.76,0,0,1-2.28.77A2.26,2.26,0,0,1,160,17m.05-1.69a2.27,2.27,0,0,1,4.51,0Z"/><path d="M129.85,16.57c-1.55,0-2.42.51-2.42,1.57s.65,1.26,1.49,1.25c1.38,0,2-.94,1.81-2.74-.29,0-.59-.07-.88-.08m-3.35-2.81c-.16-.55-.17-1.13-.33-1.68a6,6,0,0,1,2.67-.7c2.73.07,4,1.22,4.12,3.44v3.59c0,1.09.29,1.73.89,1.94a1.57,1.57,0,0,1-2.85-.18,2.83,2.83,0,0,1-2.56,1c-2,0-3.28-.64-3.29-2.82s1-3.76,5.53-3.44c-.08-1.36-1.35-2-4.17-1.1"/><path d="M137.88,8.86l-2.29.89,0,1.83h-1.05v1.86h1q0,2.7,0,5.4c.13,1.29.62,2.25,3,2.33a8.07,8.07,0,0,0,2.07-.19V18.89a3.14,3.14,0,0,1-1.41.38A1.21,1.21,0,0,1,137.94,18l0-4.5h2.43l0-1.88-2.52,0Z"/><path d="M142.36,8.1l0,12.9h2.46q0-3.37,0-6.73c.55-1.27,3.23-1.09,3.56,0V21h2.29c0-2.23,0-4.44,0-6.67-.1-2.42-3.44-4-5.87-2.12l0-4.51Z"/><path d="M171,8.86l-2.29.89,0,1.83h-1.05v1.86h1q0,2.7,0,5.4c.13,1.29.62,2.25,3,2.33a8.06,8.06,0,0,0,2.07-.19V18.89a3.13,3.13,0,0,1-1.41.38A1.21,1.21,0,0,1,171.09,18l0-4.5h2.43l0-1.88-2.52,0Z"/><path d="M194,16.57c-1.55,0-2.42.51-2.42,1.57s.65,1.26,1.49,1.25c1.38,0,2-.94,1.81-2.74-.29,0-.58-.07-.88-.08m-3.35-2.81c-.16-.55-.17-1.13-.33-1.68a6,6,0,0,1,2.67-.7c2.73.07,4,1.22,4.12,3.44v3.59c0,1.09.29,1.73.89,1.94a1.57,1.57,0,0,1-2.85-.18,2.83,2.83,0,0,1-2.56,1c-2,0-3.28-.64-3.29-2.82s1-3.76,5.53-3.44c-.08-1.36-1.35-2-4.17-1.1"/><path d="M182.57,17c-.21-3.51,2.52-4.56,4.74-3l.87-1.66a5.39,5.39,0,0,0-3.3-1c-3.42-.05-4.68,2.61-4.71,4.92,0,3,1.49,4.73,4.76,4.81a4.93,4.93,0,0,0,3.46-1l-1-1.69a3.77,3.77,0,0,1-2.28.77c-1.61,0-2.46-.8-2.56-2.23"/><polygon points="174.88 11.59 178.32 11.6 178.35 21 176.1 21 176.08 13.49 174.88 13.49 174.88 11.59"/><path d="M177.24,8a1.31,1.31,0,1,1-1.31,1.31A1.31,1.31,0,0,1,177.24,8"/><path d="M114.51,25.22l-.25.25-.25.24-.25.22-.26.2-.26.18-.27.17-.27.15-.28.13-.28.11-.28.1-.29.08-.29.06-.29,0-.29,0h-.6l-.3,0-.31-.05-.31-.07-.31-.09-.31-.11-.32-.13-.32-.15-.32-.17-.32-.19-.32-.22-.32-.24-.25-.2-.22-.2-.2-.21-.17-.21-.15-.21-.13-.22-.11-.22-.1-.22-.08-.23-.06-.23,0-.23,0-.24,0-.24v-.49l0-.25,0-.26,0-.26,0-.26.06-.26.07-.27.08-.27.08-.27.09-.27.1-.27.1-.27.1-.27.1-.27.11-.27.11-.27.11-.27.11-.27.22-.55.22-.55.21-.55.21-.55.2-.54.19-.54.18-.54.17-.53.15-.53.14-.52.12-.51.1-.5.08-.5.06-.49,0-.48V9.47l0-.45-.05-.44-.09-.42-.13-.41-.17-.39L108,7l-.25-.34-.3-.31-.34-.28-.38-.25-.43-.21-.47-.18-.51-.14-.56-.11-.6-.07-.67,0-.67,0-.6.07-.56.11-.51.14-.47.18-.43.21-.38.25-.34.28-.3.31L99,7l-.21.37-.17.39-.13.41-.09.42L98.34,9l0,.45v.46l0,.48.06.49.08.5.1.5.12.51.14.52.15.53.17.53.18.54.19.54.2.54.21.55.21.55.22.55.22.55.11.27.11.27.11.27.11.27.11.27.1.27.1.27.09.27.09.27.08.27.08.27.07.27.06.26.05.26,0,.26,0,.26,0,.25v.49l0,.24,0,.24,0,.23-.06.23-.08.23-.1.22-.11.22-.13.22-.15.21-.17.21-.2.21-.22.2-.25.2-.32.24-.32.22-.32.19-.32.17-.32.15-.32.13-.31.11-.31.09-.31.07-.31.05-.3,0h-.6l-.29,0-.29,0L95.42,27,95.14,27l-.28-.1-.28-.11-.28-.13L94,26.49l-.27-.17-.26-.18-.26-.2L93,25.71l-.25-.24-.25-.25L92.33,25l.18.05.19.05.19,0,.19,0,.19,0,.18,0,.18,0h.71l.17,0,.17,0,.17,0,.17,0,.17,0,.16-.05.16-.06.16-.07.16-.08.15-.09.15-.1.15-.1.14-.11.21-.18.2-.19.18-.2.16-.2.15-.21.13-.22.11-.23.09-.23.07-.24.06-.24,0-.25,0-.25v-.51l0-.26,0-.26-.05-.27-.06-.27L97.6,20l-.09-.28-.1-.29-.11-.29-.12-.3-.13-.3-.14-.31-.15-.32-.16-.32-.17-.33L96.25,17l-.19-.34-.19-.35-.2-.35-.41-.76-.37-.73-.32-.7L94.3,13l-.23-.65-.19-.63-.14-.6-.1-.58L93.58,10V9.5l0-.5.07-.47.1-.45.14-.42.18-.4.22-.38.26-.36.3-.34.34-.32.38-.3L96,5.28,96.48,5,97,4.78l.55-.21.6-.19.64-.17.68-.15.73-.12.77-.1.81-.07.85,0,.89,0,.89,0,.85,0,.81.07.77.1.72.12.68.15.64.17.6.19.55.21.51.24.47.26.42.28.38.3.34.32.3.34.26.36.22.38.18.4.14.42.11.45.07.47,0,.5V10l-.06.55-.1.58-.14.6-.19.63-.23.65-.28.68-.32.7-.37.73-.41.76-.2.35-.19.35-.19.34-.18.34-.17.33-.16.32-.15.32-.14.31-.13.3-.12.3-.11.29-.1.29-.09.28-.08.28-.06.27-.05.27,0,.27,0,.26v.51l0,.25,0,.25.06.24.07.24.09.23.11.22.13.22.15.21.16.2.18.2.2.19.21.18.15.11.15.1.15.1.15.09.16.08.16.07.16.06.16.05.17,0,.17,0,.17,0,.17,0,.17,0h.71l.18,0,.18,0,.18,0,.19,0,.19,0,.19-.05.18-.05ZM103.42,0a16.15,16.15,0,1,0,16.15,16.15A16.15,16.15,0,0,0,103.42,0"/></g></g></svg>