<svg xmlns="http://www.w3.org/2000/svg" viewBox="0 0 83.61 39.98"  width="83.61px" height="39.98px"><title>Ресурс 25</title><g id="Слой_2" data-name="Слой 2"><g id="Design"><path d="M61.35,0,43.11,20l8.33,13.64h-5L39.4,22.41c-.94-1.83-1-3.62.47-5.16L55.81,0H12.12A6.23,6.23,0,0,0,6.25,5L0,40H71.22a6.23,6.23,0,0,0,5.88-5L83.61,0ZM29.83,33.61l3.46-19.8L24.18,31.41S23.06,33.63,21,33.63a2.45,2.45,0,0,1-2.48-2l-3.08-17.8L11.91,33.63H7.54L12.29,6.39h3.33a3.54,3.54,0,0,1,3.48,2.95c.09.51,2.94,17.2,2.94,17.2S30.46,9.46,30.7,9A4.62,4.62,0,0,1,35,6.39h4L34.2,33.61Zm45-23.81-.11.83H63a2.36,2.36,0,0,0-2.12,1.85S58.3,26.71,58.28,27c-.27,2.19.46,2.43,1.71,2.43l7.43,0,1.25-7.06h-5l.69-4.43H74S72.14,28.15,71.7,30.37c-.5,2.51-2,3.27-4.34,3.27H58.63c-2.81,0-3.75-.53-4.5-1.51s-.91-1.42-.21-5.47l2.4-13.87c.84-4.89,2.57-6.39,7.42-6.39h8.43C74.23,6.39,75.05,8.18,74.87,9.81Z"/></g></g></svg>