<svg xmlns="http://www.w3.org/2000/svg" viewBox="0 0 63.76 85.78"  width="63.76px" height="85.78px"><defs><style>.cls-1{isolation:isolate;}.cls-2{mix-blend-mode:multiply;}.cls-3{fill:#fff;}</style></defs><title>Ресурс 24</title><g class="cls-1"><g id="Слой_2" data-name="Слой 2"><g id="Design"><g class="cls-2"><path class="cls-3" d="M62.16,31.88A30.28,30.28,0,1,1,31.88,1.59,30.28,30.28,0,0,1,62.16,31.88"/><path d="M31.88,1.59A30.28,30.28,0,1,0,62.16,31.88,30.28,30.28,0,0,0,31.88,1.59M63.76,31.88A31.88,31.88,0,1,1,31.88,0,31.88,31.88,0,0,1,63.76,31.88"/><path d="M31.88,59.79a27.91,27.91,0,0,0,24-42.23,19.62,19.62,0,0,1,.58,4.68,19.83,19.83,0,0,1-8.15,16c-8.48,6.24-20.8,6.32-37.77,11.59a27.85,27.85,0,0,0,21.38,10"/><path d="M48.44,9.42A27.91,27.91,0,0,0,8,46.3C27.14,41,42.68,28.22,48.44,9.42"/><path d="M30.42,75.62v.06a3,3,0,0,1-1,.13,18.39,18.39,0,0,1-2.15-.2,24,24,0,0,0-3-.25h-.54a10.2,10.2,0,0,0-2.7.53,4.51,4.51,0,0,1,4.64-3.83,4.53,4.53,0,0,1,4.75,3.55m-11.28.76A5.58,5.58,0,0,0,20,79.29a6.73,6.73,0,0,0,5.79,2.92,6.74,6.74,0,0,0,5.72-2.92l.32-.61h-2a5.16,5.16,0,0,1-4.1,2,4.68,4.68,0,0,1-4.58-3.08,9.58,9.58,0,0,1,3.51-.68,15.18,15.18,0,0,1,1.84.18,21.59,21.59,0,0,0,2.89.25A7.63,7.63,0,0,0,31.77,77c.5-.19.63-.46.54-1a6.27,6.27,0,0,0-6.63-5.43c-3.17,0-6.53,2-6.53,5.83m-12.74.06a4.51,4.51,0,0,1,4.76-4.34A4.48,4.48,0,0,1,16,76.43c0,2.12-1.64,4.27-4.77,4.27a4.49,4.49,0,0,1-4.79-4.27m.09,3.78a6.16,6.16,0,0,0,4.72,2c3.63,0,6.58-2.62,6.58-5.83s-2.91-5.82-6.62-5.82a6.2,6.2,0,0,0-6.48,6.61v8.59H6.51s0-5,0-5.56M60.65,68.43a1.25,1.25,0,1,0-1.25,1.25,1.25,1.25,0,0,0,1.25-1.25M58.54,82h1.83V70.84H58.53Zm-23.1-5.52A4.51,4.51,0,0,1,40.2,72.1,4.49,4.49,0,0,1,45,76.43c0,2.12-1.64,4.27-4.77,4.27a4.5,4.5,0,0,1-4.79-4.27m4.81,5.79c3.63,0,6.58-2.62,6.58-5.83s-2.91-5.82-6.62-5.82a6.2,6.2,0,0,0-6.49,6.61v8.59h1.83s0-5,0-5.56a6.16,6.16,0,0,0,4.72,2m8.13-8.51a2.45,2.45,0,0,0,1,1.93,7.23,7.23,0,0,0,2.59,1.27,6.27,6.27,0,0,1,2,.94A1.44,1.44,0,0,1,54.49,79c0,1-1.06,1.69-2.76,1.7a6.55,6.55,0,0,1-2.82-.7l-.27-.13-.14.26-.61,1.16.28.14a7.92,7.92,0,0,0,3.47.78,6,6,0,0,0,3.4-.9,2.92,2.92,0,0,0,1.34-2.44v0a2.69,2.69,0,0,0-1-2.13,7.28,7.28,0,0,0-2.61-1.27,7.16,7.16,0,0,1-1.93-.85,1.18,1.18,0,0,1-.56-1c0-.76.69-1.52,2.24-1.53a4.66,4.66,0,0,1,2.44.59l.26.16.84-1.39-.28-.15a6.49,6.49,0,0,0-3-.7,5.2,5.2,0,0,0-3.17.92,2.81,2.81,0,0,0-1.18,2.22"/></g></g></g></g></svg>