<svg xmlns="http://www.w3.org/2000/svg" viewBox="0 0 113.81 25.2" width="113.81px" height="25.2px"><title>Ресурс 38</title><g id="Слой_2" data-name="Слой 2"><g id="Design"><path d="M85.73.88a3.07,3.07,0,0,0-2.11-.7h-.68A3,3,0,0,0,80.86.9,3.38,3.38,0,0,0,80,3.53V15.07a3.38,3.38,0,0,0,.83,2.63,3.15,3.15,0,0,0,2.15.72h.67a2.87,2.87,0,0,0,2-.74,3.47,3.47,0,0,0,.79-2.61V3.53A3.46,3.46,0,0,0,85.73.88"/><path d="M104.32,2.13A5.08,5.08,0,0,0,102.48.58,6,6,0,0,0,99.73,0,5.64,5.64,0,0,0,96.4.92a7.86,7.86,0,0,0-2.18,2.36,5,5,0,0,0-.63-1.5,3.47,3.47,0,0,0-.89-1,3.24,3.24,0,0,0-1.06-.5,4.83,4.83,0,0,0-2.87.16C88.26.69,88,.85,88,1v14.1a3.4,3.4,0,0,0,.82,2.63,3.12,3.12,0,0,0,2.11.72h.68a3,3,0,0,0,2.06-.72,3.44,3.44,0,0,0,.81-2.63v-8a3.18,3.18,0,0,1,1-1A2.74,2.74,0,0,1,97,5.62a1.94,1.94,0,0,1,1.59.71,3,3,0,0,1,.58,1.93v6.81A3.38,3.38,0,0,0,100,17.7a3.15,3.15,0,0,0,2.15.72h.64a2.93,2.93,0,0,0,2.08-.74,3.48,3.48,0,0,0,.79-2.61v-8a10.91,10.91,0,0,0-.32-2.69,6.43,6.43,0,0,0-1-2.25"/><path d="M110.19,10.93a3.75,3.75,0,0,0-3.62,3.86,3.63,3.63,0,1,0,7.24,0,3.74,3.74,0,0,0-3.62-3.86"/><path d="M35.91,2.58A8.09,8.09,0,0,0,33,.67,10,10,0,0,0,29.3,0a10.28,10.28,0,0,0-3.77.67,8.15,8.15,0,0,0-4.8,4.85,10.63,10.63,0,0,0-.66,3.82,11.2,11.2,0,0,0,.64,3.89,8.46,8.46,0,0,0,1.83,3,8,8,0,0,0,2.87,1.89,11.11,11.11,0,0,0,7.57,0,8.14,8.14,0,0,0,2.89-1.89,8.54,8.54,0,0,0,1.86-3,10.79,10.79,0,0,0,.66-3.86,10.83,10.83,0,0,0-.64-3.84,8.45,8.45,0,0,0-1.84-3M29.28,13.19a3.74,3.74,0,0,1-3.62-3.86,3.63,3.63,0,1,1,7.24,0,3.74,3.74,0,0,1-3.62,3.86"/><path d="M16.93,2.51A6.89,6.89,0,0,0,14.5.65,7.5,7.5,0,0,0,11.36,0,5.43,5.43,0,0,0,8.18.94,5.13,5.13,0,0,0,6.25,3.43a4.49,4.49,0,0,0-.61-1.59,3.91,3.91,0,0,0-.91-1A3,3,0,0,0,3.65.32,4.86,4.86,0,0,0,2.5.18,4.6,4.6,0,0,0,.76.49C.25.69,0,.85,0,1V21.88A3.32,3.32,0,0,0,.83,24.5a3.15,3.15,0,0,0,2.11.7h.68a3,3,0,0,0,2.06-.72,3.37,3.37,0,0,0,.81-2.6V15.64a5.23,5.23,0,0,0,1.88,2.24,5.16,5.16,0,0,0,3,.86A7,7,0,0,0,14.5,18a7.33,7.33,0,0,0,2.43-1.95,8.86,8.86,0,0,0,1.55-3A12.69,12.69,0,0,0,19,9.34a13.06,13.06,0,0,0-.54-3.89,8.41,8.41,0,0,0-1.55-2.94m-7,10.69A3.75,3.75,0,0,1,6.27,9.34,3.75,3.75,0,0,1,9.88,5.47a3.75,3.75,0,0,1,3.62,3.86A3.75,3.75,0,0,1,9.88,13.2"/><path d="M56.54,2.51A6.86,6.86,0,0,0,54.11.65,7.47,7.47,0,0,0,51,0a5.44,5.44,0,0,0-3.18.94,5.15,5.15,0,0,0-1.93,2.49,4.49,4.49,0,0,0-.61-1.59,3.89,3.89,0,0,0-.91-1A3,3,0,0,0,43.26.32,4.87,4.87,0,0,0,42.11.18a4.61,4.61,0,0,0-1.74.31c-.51.2-.76.36-.76.49V21.88a3.33,3.33,0,0,0,.83,2.62,3.16,3.16,0,0,0,2.12.7h.67a3,3,0,0,0,2.06-.72,3.36,3.36,0,0,0,.81-2.6V15.64A5.27,5.27,0,0,0,48,17.88a5.17,5.17,0,0,0,3,.86,7,7,0,0,0,3.14-.7,7.3,7.3,0,0,0,2.43-1.95,8.86,8.86,0,0,0,1.56-3,12.77,12.77,0,0,0,.54-3.79,13.14,13.14,0,0,0-.54-3.89,8.4,8.4,0,0,0-1.56-2.94m-7,10.69a3.74,3.74,0,0,1-3.62-3.86,3.63,3.63,0,1,1,7.24,0,3.75,3.75,0,0,1-3.62,3.86"/><path d="M76.72,2.51A6.86,6.86,0,0,0,74.29.65,7.49,7.49,0,0,0,71.15,0,5.43,5.43,0,0,0,68,.94,5.12,5.12,0,0,0,66,3.43a4.48,4.48,0,0,0-.61-1.59,3.85,3.85,0,0,0-.91-1A3,3,0,0,0,63.44.32,4.9,4.9,0,0,0,62.29.18a4.59,4.59,0,0,0-1.74.31c-.51.2-.76.36-.76.49V21.88a3.32,3.32,0,0,0,.83,2.62,3.16,3.16,0,0,0,2.12.7h.67a3,3,0,0,0,2.06-.72,3.38,3.38,0,0,0,.81-2.6V15.64a5.24,5.24,0,0,0,1.88,2.24,5.15,5.15,0,0,0,3,.86,7,7,0,0,0,3.15-.7,7.29,7.29,0,0,0,2.43-1.95,8.79,8.79,0,0,0,1.55-3,12.59,12.59,0,0,0,.54-3.79,13,13,0,0,0-.54-3.89,8.34,8.34,0,0,0-1.55-2.94m-7,10.69a3.75,3.75,0,0,1-3.62-3.86,3.63,3.63,0,1,1,7.24,0,3.75,3.75,0,0,1-3.62,3.86"/><path d="M108.38,1.94A1.83,1.83,0,0,1,110.19,0,1.79,1.79,0,0,1,112,1.92a1.83,1.83,0,0,1-1.81,1.94,1.79,1.79,0,0,1-1.81-1.93m3.4,0A1.61,1.61,0,0,0,110.19.2a1.59,1.59,0,0,0-1.59,1.73,1.59,1.59,0,1,0,3.18,0m-1.49.17.65.71s0,.11-.13.11a.22.22,0,0,1-.17-.09l-.61-.7h-.24V2.8c0,.07,0,.12-.11.12h0c-.06,0-.1-.05-.1-.13V1.07c0-.1.05-.16.13-.16h.56c.47,0,.72.2.72.6s-.22.58-.67.58m-.05-.2c.31,0,.47-.15.47-.39s-.16-.38-.48-.38h-.45v.77Z"/></g></g></svg>