<svg xmlns="http://www.w3.org/2000/svg" viewBox="0 0 103.13 29.37" width="103.13px" height="29.37px"><title>Ресурс 35</title><g id="Слой_2" data-name="Слой 2"><g id="Design"><g id="nRUA6D"><path d="M0,26.07c.35-.5.7-1,1-1.5s.72-1.12,1.12-1.75l.42.38a7.82,7.82,0,0,0,6,2.43,5.65,5.65,0,0,0,2-.54,1.6,1.6,0,0,0,.88-1.67,1.42,1.42,0,0,0-1.19-1.26C9,21.82,7.72,21.6,6.5,21.22A19.73,19.73,0,0,1,3.16,19.9a4.9,4.9,0,0,1-.62-8.11,9.12,9.12,0,0,1,6-1.64,10.55,10.55,0,0,1,6.76,2.74l-2,3a6.58,6.58,0,0,0-3.26-1.83,6.73,6.73,0,0,0-3.41,0,3.53,3.53,0,0,0-1.18.6.91.91,0,0,0,.07,1.56,8.74,8.74,0,0,0,2,.82c1.09.31,2.2.53,3.3.79a7.3,7.3,0,0,1,3.32,1.67,5.37,5.37,0,0,1,1.66,4.33c-.09,2.86-2.59,4.74-4.89,5.27-.58.13-1.18.21-1.76.32H7.32c-.22,0-.43-.08-.65-.1A9.94,9.94,0,0,1,.32,26.5,2.09,2.09,0,0,0,0,26.28Z"/><path d="M25.56,29.37c-.5-.1-1-.18-1.5-.31a7.51,7.51,0,0,1-4.45-3.2,5.86,5.86,0,0,1-.83-3.09c-.09-1.56-.11-3.12-.12-4.68,0-2.44,0-4.87,0-7.36H23c0,.2,0,.4,0,.6,0,3.12,0,6.25,0,9.37a9.29,9.29,0,0,0,.3,2.38,2.92,2.92,0,0,0,3.16,2.17,2.94,2.94,0,0,0,3.18-2.15,6.92,6.92,0,0,0,.3-1.92c0-3.28,0-6.56,0-9.84,0-.2,0-.4,0-.64h4.4v.53c0,3.23,0,6.45,0,9.68a19.17,19.17,0,0,1-.24,2.82,6.79,6.79,0,0,1-5.64,5.41l-1.1.21Z"/><path d="M69.77,29.37A2.38,2.38,0,0,1,68,27.64,2.2,2.2,0,0,1,68.18,26l8.05-14.59a2.33,2.33,0,0,1,4.15,0q3.93,7.17,7.9,14.32a2.24,2.24,0,0,1-.33,3,5.72,5.72,0,0,1-1.29.67H86a2.92,2.92,0,0,1-1.79-1.64c-1.88-3.54-3.79-7.06-5.68-10.59l-.32-.57-.28.5q-3,5.52-5.93,11a2,2,0,0,1-1.3,1.07,4.54,4.54,0,0,0-.47.18Z"/><path d="M100.48,29.37a2.57,2.57,0,0,1-1.75-2.75c0-7.93,0-15.87,0-23.8,0-1.67.35-2.2,1.84-2.82h.72a6.89,6.89,0,0,1,1.14.64,2.3,2.3,0,0,1,.69,1.91q0,12,0,24c0,1.66-.33,2.16-1.83,2.77Z"/><path d="M93.06,29.37a2.38,2.38,0,0,1-1.81-2.74c0-6.42,0-12.84,0-19.25a2.2,2.2,0,0,1,2.94-2.22,2.06,2.06,0,0,1,1.46,2.12q0,8.21,0,16.42,0,1.49,0,3a2.34,2.34,0,0,1-1.86,2.69Z"/><path d="M64.93,29.11H60.61c0-.2,0-.39,0-.59,0-3.74,0-7.49,0-11.23A5.22,5.22,0,0,0,60.43,16a3.18,3.18,0,0,0-4.53-1.8A3.93,3.93,0,0,0,53.53,18c0,3.47,0,6.94,0,10.41v.7H49.15c0-.2,0-.4,0-.6,0-3.74,0-7.49,0-11.23A5.07,5.07,0,0,0,49,16c-.69-2.5-3.72-2.54-5.15-1.42a4.26,4.26,0,0,0-1.6,3.53c0,3.47,0,6.94,0,10.41,0,.2,0,.4,0,.64H37.87V10.73h4.35v1.45a6.56,6.56,0,0,1,5.43-2,6.11,6.11,0,0,1,5,2.74,7.49,7.49,0,0,1,4.06-2.53,8.5,8.5,0,0,1,5.11.33,4.49,4.49,0,0,1,2.52,2.77A8.93,8.93,0,0,1,65,17.05q0,5.77,0,11.54C65,28.76,64.94,28.92,64.93,29.11Z"/></g></g></g></svg>