<svg xmlns="http://www.w3.org/2000/svg" viewBox="0 0 182.8 33.34"  height="33.34px" width="182.8px"><title>Ресурс 29</title><g id="Слой_2" data-name="Слой 2"><g id="Design"><path d="M73.33,28.26a1.85,1.85,0,0,0,.19-.95,2,2,0,0,0-2.14-2,2.64,2.64,0,0,0-2.6,2.9,2.51,2.51,0,0,0,2.56,2.81,2,2,0,0,0,2.08-1.36l-.18-.35-.05-.08-.05.08a1.87,1.87,0,0,1-1.64.86c-1.07,0-1.71-.63-1.72-1.92v0Zm-2-2.15a1.13,1.13,0,0,1,1.21,1.29v.23H69.84c.14-.92.57-1.52,1.51-1.53M79.82,26a1.68,1.68,0,0,0,.92.22l-1.32,3.33L78,26.22a2.32,2.32,0,0,0,.84-.16l0-.48v-.06H76.26V26a1.6,1.6,0,0,0,.76.21l1.88,4.57-.44.91a2,2,0,0,1-.81,1.08.72.72,0,0,0,.09-.33.62.62,0,0,0-.65-.66.67.67,0,0,0-.66.7.92.92,0,0,0,1,.86c.84,0,1.32-.63,1.75-1.65l2.34-5.52a1.42,1.42,0,0,0,.67-.12v-.54H79.82Zm9.24,2.26a1.86,1.86,0,0,0,.19-.95,2,2,0,0,0-2.14-2,2.63,2.63,0,0,0-2.59,2.9,2.5,2.5,0,0,0,2.56,2.81,2,2,0,0,0,2.08-1.36L89,29.35l0-.08-.05.08a1.89,1.89,0,0,1-1.64.86c-1.07,0-1.71-.63-1.72-1.92v0Zm-2-2.15a1.13,1.13,0,0,1,1.21,1.29v.23H85.56c.13-.92.57-1.52,1.51-1.53M98.37,26a1.82,1.82,0,0,0,1,.22l-1.14,3.25-1.49-4h-.51l-1.5,4.08-1.24-3.29a2.39,2.39,0,0,0,.85-.16l0-.48v-.06H91.72V26a1.52,1.52,0,0,0,.72.21l1.86,4.85h.5l1.48-3.88,1.48,3.88h.55l1.86-4.88a1.41,1.41,0,0,0,.62-.12l0-.48v-.06H98.37Zm9,2.26a1.84,1.84,0,0,0,.19-.95,2,2,0,0,0-2.14-2,2.64,2.64,0,0,0-2.59,2.9,2.5,2.5,0,0,0,2.56,2.81,2,2,0,0,0,2.09-1.36l-.18-.35,0-.08-.05.08a1.88,1.88,0,0,1-1.64.86c-1.07,0-1.71-.63-1.72-1.92v0Zm-2-2.15a1.13,1.13,0,0,1,1.21,1.29v.23h-2.72c.13-.92.57-1.52,1.51-1.53m10.06,4.19c-.36,0-.48-.11-.49-.61s0-2.45,0-2.45v-.11c0-1.22-.75-1.86-2-1.86a1.9,1.9,0,0,0-2.06,1.54.57.57,0,0,0,.57.61.55.55,0,0,0,.61-.57.56.56,0,0,0-.35-.53,1.93,1.93,0,0,1,1-.26c.91,0,1.28.39,1.29,1.21l0,.75a3.68,3.68,0,0,0-.94-.12c-1.52,0-2.55.51-2.55,1.67,0,1,.75,1.5,1.75,1.5a2.29,2.29,0,0,0,1.78-.72,1.06,1.06,0,0,0,1.12.72h0a1.14,1.14,0,0,0,1-.5l0-.44V30l-.1.07a1.15,1.15,0,0,1-.69.24M114,29.72a2.33,2.33,0,0,1-1.5.49c-.63,0-1-.27-1-.74,0-.74.65-.91,1.72-.92a5.78,5.78,0,0,1,.76.07Zm.06,0h0m8.18-4.4a1.73,1.73,0,0,0-1.55,1v-.74a2,2,0,0,0-.9-.15,3.91,3.91,0,0,0-1.25.19v.51a1.91,1.91,0,0,0,.78.14,2.2,2.2,0,0,0,.4,0v4a2.67,2.67,0,0,0-1.11.23V31H122v-.48a3,3,0,0,0-1.31-.23V27.31a1.53,1.53,0,0,1,1.07-1.12.62.62,0,0,0,.65.58.65.65,0,0,0,.65-.68.77.77,0,0,0-.83-.74"/><path d="M18.11.32h-.65c-.16-.05-.67.18-.67.4L13.33,9.8,10,.65C9.91.36,9.44.26,9.41.29H9.36c-.17-.06-.54.24-.54.37L5.56,9.8,2,.8A.68.68,0,0,0,1.38.32H.54A.65.65,0,0,0,.22.39.51.51,0,0,0,0,.81a1.21,1.21,0,0,0,.07.32L5,13.5a.71.71,0,0,0,.55.35h0a.58.58,0,0,0,.57-.39c.93-2.57,2.51-6.8,3.26-8.82.74,2,2.31,6.35,3.24,8.82.06.3.54.4.59.39s.52-.09.56-.37C15.44,9.36,17.4,4.4,18.68,1.13a1.07,1.07,0,0,0,.06-.31c0-.44-.57-.5-.63-.5m10,0A.59.59,0,0,0,27.55,0,.7.7,0,0,0,27,.36c-1.19,2.31-5.57,11-6.26,12.35a.48.48,0,0,0-.12.36c.07.5.59.5.68.5h.65a.82.82,0,0,0,.72-.43l1.25-2.56h7.24l1.3,2.62a.8.8,0,0,0,.57.38h.87c.14,0,.6-.16.6-.5a.6.6,0,0,0-.09-.33c-.75-1.56-5.09-10-6.3-12.37m-3.33,8.5c.57-1.15,1.89-3.74,2.78-5.57a.06.06,0,0,0,0,0s0,0,0,0c.91,1.81,2.17,4.4,2.76,5.55Zm21.55-.55A4,4,0,0,0,48.87,4.6,4.44,4.44,0,0,0,44.14.32h-5a.47.47,0,0,0-.4.16.58.58,0,0,0-.15.44V13a.47.47,0,0,0,.1.37.56.56,0,0,0,.48.22H40a.56.56,0,0,0,.42-.18.58.58,0,0,0,.13-.41V8.73h3.72l3.38,4.54a.83.83,0,0,0,.57.3H49c.09,0,.65-.13.65-.53a.88.88,0,0,0-.18-.47c-1-1.35-2.52-3.39-3.2-4.27M44,7H40.55V2.09h3.55A2.64,2.64,0,0,1,47,4.63C46.9,6,46,7,44,7m19.85-.27A3.18,3.18,0,0,0,65,4C65,1.61,62.87.32,60.3.32h-5a.69.69,0,0,0-.46.14.56.56,0,0,0-.18.47V13a.76.76,0,0,0,.59.59h5.84c2.83,0,4.63-1.26,4.63-3.75a3.4,3.4,0,0,0-1.92-3.11M56.68,2.09h3.75c1.79,0,2.64.81,2.66,2-.1,1.47-.52,1.91-2.34,2H56.68ZM61,11.82H56.68V7.76H61c1.87,0,2.83.86,2.84,2.06-.06,1.37-.76,1.92-2.81,2M80.09.32h-.78a.76.76,0,0,0-.61.4c-.67,1-3,4.52-3.86,5.91-.9-1.41-3.19-5-3.86-6a.74.74,0,0,0-.64-.35h-.69a.63.63,0,0,0-.7.5.7.7,0,0,0,.1.31c1,1.49,4.3,6.67,4.82,7.44V13a.53.53,0,0,0,.15.44.52.52,0,0,0,.41.18h.76a.65.65,0,0,0,.49-.18.61.61,0,0,0,.13-.48V8.57c.52-.75,3.74-5.72,4.78-7.38A1,1,0,0,0,80.7.82c0-.48-.54-.5-.61-.5m20.46,0h-5a.49.49,0,0,0-.4.16A.6.6,0,0,0,95,.91V13a.6.6,0,0,0,.15.41.51.51,0,0,0,.41.18h.86a.49.49,0,0,0,.45-.24A.52.52,0,0,0,97,13V8.77h3.21c3,0,5.1-1.62,5.11-4.22S103,.32,100.55.32m0,6.69H97V2.09h3.52c1.6,0,2.84.91,2.84,2.46S102.09,7,100.52,7m14-6.65A.65.65,0,0,0,114,0a.63.63,0,0,0-.53.36c-1.23,2.31-5.59,11-6.28,12.35a.47.47,0,0,0-.1.36c0,.5.56.5.66.5h.65a.77.77,0,0,0,.71-.43l1.3-2.56h7.21l1.31,2.62a.76.76,0,0,0,.56.38h.85c.15,0,.61-.16.61-.5a1.57,1.57,0,0,0-.09-.33c-.77-1.56-5.12-10-6.3-12.37m-3.35,8.5c.6-1.15,1.9-3.74,2.77-5.57h0l0,0,2.74,5.55Zm21.44-.56a3.94,3.94,0,0,0,2.55-3.7A4.42,4.42,0,0,0,130.44.32h-5a.76.76,0,0,0-.54.6V13a.5.5,0,0,0,.11.38.54.54,0,0,0,.45.21h.82a.57.57,0,0,0,.44-.2.44.44,0,0,0,.13-.39V8.71h3.72L134,13.27a.79.79,0,0,0,.61.3h.77c.08,0,.66-.15.66-.53a.86.86,0,0,0-.18-.47c-1-1.37-2.52-3.39-3.21-4.27M130.31,7h-3.43V2.09h3.52c1.65,0,2.87,1,2.88,2.55,0,1.37-.91,2.31-3,2.35M147,5.87l4.28-4.67a.52.52,0,0,0,.14-.32.6.6,0,0,0-.63-.57H150a1,1,0,0,0-.62.21L143,7.64V.94a.63.63,0,0,0-.13-.43.61.61,0,0,0-.48-.19h-.74a.67.67,0,0,0-.46.15.59.59,0,0,0-.15.44c0,.17,0,11.94,0,12.08a.49.49,0,0,0,.16.41.69.69,0,0,0,.48.17h.66a.86.86,0,0,0,.49-.14A.54.54,0,0,0,143,13V10.28l2.67-2.93,4.56,5.85a1.12,1.12,0,0,0,.72.38h.87c.2,0,.61-.2.61-.52a.56.56,0,0,0-.14-.37Zm19.35,6.6a.66.66,0,0,0-.13-.5.61.61,0,0,0-.45-.17.15.15,0,0,1-.08,0h-7V7.73h6.86c.42,0,.58-.57.58-.73V6.62c0-.1-.19-.67-.58-.67h-6.84V2.09h6.92a.59.59,0,0,0,.51-.22.77.77,0,0,0,.12-.45V1a1,1,0,0,0-.12-.47.67.67,0,0,0-.47-.17h-8.44a.43.43,0,0,0-.32.1.43.43,0,0,0-.16.4V12.9c0,.12-.05.23.09.42a.56.56,0,0,0,.48.25h8.44a.59.59,0,0,0,.42-.16.54.54,0,0,0,.16-.48Zm16.28.1L179.42,8.3A3.94,3.94,0,0,0,182,4.6,4.42,4.42,0,0,0,177.24.32h-5a.75.75,0,0,0-.54.6c0,.22,0,11.8,0,12.07a.58.58,0,0,0,.1.38.56.56,0,0,0,.47.21h.83a.57.57,0,0,0,.43-.2.51.51,0,0,0,.14-.39V8.71h3.7l3.36,4.56a.86.86,0,0,0,.61.3h.81c.06,0,.63-.15.63-.53a.79.79,0,0,0-.17-.47M177.09,7h-3.41V2.09h3.52c1.64,0,2.84,1,2.85,2.55,0,1.37-.9,2.31-3,2.35"/></g></g></svg>