<svg xmlns="http://www.w3.org/2000/svg" viewBox="0 0 141.74 29.01"  height="29.01px" width="141.74px"><title>Ресурс 36</title><g id="Слой_2" data-name="Слой 2"><g id="Design"><path d="M1.06,14a2.43,2.43,0,0,1,1.88,1.51c2.26,4.14,4.52,8.71,6.72,13.21a1.53,1.53,0,0,0,1.07.28,1.55,1.55,0,0,0,1.06-.28c1-2,3.81-7.29,5-9.35,1.39,2.55,3.78,7.2,4.75,9.35A1.5,1.5,0,0,0,22.6,29a1.5,1.5,0,0,0,1.06-.28c1.94-4.21,4-8.59,6.17-12.66.74-1.47,1.06-1.86,2.58-2.14l.64-.11c.37-.37.27-1.23-.14-1.4-1,.08-2.21.12-3.55.12-1.15,0-2.25,0-3.77-.12-.46.17-.46,1.12-.18,1.4l.78.15c.79.16,1.15.36,1.15.56a5,5,0,0,1-.43,1.54c-.73,1.84-1.45,3.79-2.57,6.1-1-1.91-2.29-4.5-3.13-6.41a3.28,3.28,0,0,1-.36-1.23c0-.2.64-.4,1.7-.6l.68-.11c.33-.16.37-1.35-.14-1.4-2.94.08-5.24.12-8.15.12H5.66c-1.93,0-3.4,0-5.29-.12-.47.2-.47,1.08-.15,1.4ZM11.5,14a12.54,12.54,0,0,1,2.21.15,2.56,2.56,0,0,1,1.7,2.07,4.11,4.11,0,0,1-.14,1.2,38.29,38.29,0,0,1-2.44,4.74c-.78-1.27-2.62-4.86-3.26-6.25a3.83,3.83,0,0,1-.42-1.31c0-.44.87-.59,2.34-.59"/><path d="M39.49,29a9,9,0,0,0,8.06-4.54,1,1,0,0,0-1.2-.92,4.76,4.76,0,0,1-4.28,2.07c-4.28,0-6.49-2.9-6.49-5.88,0-.64.1-.71,1.16-.71h8.83c1.44,0,1.66-.56,1.66-1.31,0-3.07-2.58-5.73-7.37-5.73-5.74,0-9.93,3.9-9.93,8.92,0,4.34,3.36,8.12,9.57,8.12m0-15.2A2.14,2.14,0,0,1,42,16c0,.4-.09.8-.32.91a4.18,4.18,0,0,1-1.89.35h-1.7c-1.48,0-2.12,0-2.12-.59,0-1.28,1.66-2.86,3.59-2.86"/><path d="M48.6,14a2.43,2.43,0,0,1,1.89,1.51c2.25,4.14,4.52,8.71,6.72,13.21a2.11,2.11,0,0,0,2.12,0c1.06-2,3.82-7.29,5-9.35,1.38,2.55,3.77,7.2,4.73,9.35a2.12,2.12,0,0,0,2.12,0c1.94-4.21,4.05-8.59,6.17-12.66.74-1.47,1.05-1.86,2.57-2.14l.65-.11c.36-.37.27-1.23-.14-1.4-1,.08-2.21.12-3.55.12-1.15,0-2.25,0-3.77-.12-.47.17-.47,1.12-.18,1.4l.78.15c.78.16,1.15.36,1.15.56a5.3,5.3,0,0,1-.41,1.54c-.74,1.84-1.48,3.79-2.58,6.1-1-1.91-2.29-4.5-3.12-6.41a3.21,3.21,0,0,1-.37-1.23c0-.2.64-.4,1.7-.6l.68-.11c.32-.16.37-1.35-.14-1.4-2.94.08-5.25.12-8.15.12h-9.3c-1.92,0-3.4,0-5.29-.12-.46.2-.46,1.08-.14,1.4ZM59,14a12.55,12.55,0,0,1,2.22.15A2.56,2.56,0,0,1,63,16.23a4.22,4.22,0,0,1-.14,1.2,40.74,40.74,0,0,1-2.44,4.74c-.79-1.27-2.62-4.86-3.27-6.25a3.92,3.92,0,0,1-.42-1.31c0-.44.87-.59,2.34-.59"/><path d="M88,29c5.65,0,10.58-2.74,10.58-8.56,0-5.61-4.88-8.47-10.31-8.47s-10.63,3.14-10.59,8.84C77.73,26.3,82.51,29,88,29m0-15.2c2.61,0,3.9,3.34,4,7.2,0,3.58-.84,6.17-3.46,6.17s-4.18-3.07-4.18-7.24c0-4.33,1.67-6.13,3.69-6.13"/><path d="M106.42,15.39c.28,0,.69,0,1.74.79a2.74,2.74,0,0,0,1.79.72c1.47,0,2.95-.76,2.95-2.59A2.41,2.41,0,0,0,110.37,12c-1.93,0-3.26,1.31-4.51,2-.37-.07-.46-.19-.46-.47s.09-.91.18-1.71a1,1,0,0,0-.82-.36A34,34,0,0,1,98,13.81.86.86,0,0,0,98,15l.66.36c.87.48.87,1,.87,2.55v6c0,2.78-.18,3.14-1.71,3.27l-.88.07a1,1,0,0,0,0,1.4c1.52-.09,3.55-.12,5.43-.12,2.16,0,4,0,6.21.12a1,1,0,0,0,0-1.4l-1.47-.11c-1.52-.13-1.71-.44-1.71-3.23V17.78c0-1.51.23-2.39.88-2.39"/><path d="M124.43,27.05l-.6.12a.92.92,0,0,0,.18,1.38c1.29-.08,2.94-.12,5.67-.12s4.37,0,5.79.12c.46-.15.56-1.11.18-1.38l-.68-.12a5.82,5.82,0,0,1-2.71-.91c-1.16-.91-5.21-6.33-6-7.6a1.41,1.41,0,0,1-.34-.68.79.79,0,0,1,.27-.52A26.92,26.92,0,0,1,129.26,15a8.26,8.26,0,0,1,3.09-1.39l1.47-.28a1,1,0,0,0-.19-1.39,77.72,77.72,0,0,1-8.7.56h-1.1c-.46.17-.51,1-.1,1.39l1.15.17c.41,0,.87.19.87.39s-.22.68-1.1,1.58l-1.93,2a3.65,3.65,0,0,1-2.67,1.11c-.5,0-.65-.12-.65-.56V6.09c0-2.51.06-4.18.15-5.81a1.08,1.08,0,0,0-.79-.28,57.33,57.33,0,0,1-7,2.22.84.84,0,0,0,0,1.19l.78.41c.92.48.92.91.92,2.51v17.5c0,2.78-.18,3.1-1.85,3.27l-.87.08a1,1,0,0,0,0,1.38c1.61-.08,3.5-.12,5.62-.12s4,0,5.53.12a1,1,0,0,0,0-1.38l-.73-.08c-1.62-.16-1.8-.48-1.8-3.27v-2.3c0-.76.23-1,.55-1a1.36,1.36,0,0,1,1.16.59l3.26,4.31a4.5,4.5,0,0,1,.78,1.28c0,.15-.27.22-.73.31"/><path d="M139.34,29a2.39,2.39,0,1,1,2.39-2.39A2.39,2.39,0,0,1,139.34,29m0-4.32a1.92,1.92,0,1,0,1.92,1.92,1.93,1.93,0,0,0-1.92-1.92"/><path d="M139.76,27.76l-.48-.87h-.38v.87h-.52V25.32h1.14a.76.76,0,0,1,.82.79.7.7,0,0,1-.53.72l.55.93Zm.05-1.65a.33.33,0,0,0-.37-.33h-.54v.66h.54a.33.33,0,0,0,.37-.33"/></g></g></svg>