<svg xmlns="http://www.w3.org/2000/svg" viewBox="0 0 263.06 29.8"><defs><style>.cls-1{fill:#badac2;}.cls-2{fill:#acdddc;}.cls-3{fill:#ea618c;}.cls-4{fill:#29baaf;}.cls-5{fill:#294862;}.cls-6{fill:#c13b88;}.cls-7{fill:#93c84b;}.cls-8{fill:#f9bc55;}.cls-9{fill:#8d9137;}.cls-10{fill:#222b5e;}.cls-11{fill:#fdbf54;}.cls-12{fill:#f4b72b;}.cls-13{fill:#1f9246;}.cls-14{fill:#2e8942;}.cls-15{fill:#fdc157;}.cls-16{fill:#e94b30;}.cls-17{fill:#ea4e2b;}.cls-18{fill:#6b406b;}.cls-19{fill:#6b566f;}.cls-20{fill:#293921;}.cls-21{fill:#5d9257;}</style></defs><title>Ресурс 7</title><g id="Слой_2" data-name="Слой 2"><g id="Design"><rect class="cls-1" x="97.52" y="1.02" width="2.32" height="10.27"/><polygon class="cls-2" points="115.4 1.02 115.4 7.42 110.69 1.02 108.33 1.02 108.33 11.29 110.69 11.29 110.69 5.08 115.4 11.29 115.4 11.28 115.4 11.29 117.69 11.29 117.69 1.02 115.4 1.02"/><polygon class="cls-1" points="115.58 22.94 111.14 22.94 111.14 19 108.56 19 108.56 29.27 111.14 29.27 111.14 25.31 115.58 25.31 115.58 29.27 118.06 29.27 118.06 19 115.58 19 115.58 22.94"/><polygon class="cls-2" points="132.07 21.16 132.07 19 125.86 19 123.37 19 123.37 29.27 125.86 29.27 132.07 29.27 132.07 26.95 125.86 26.95 125.86 24.93 130.91 24.93 130.91 23 125.86 23 125.86 21.16 132.07 21.16"/><polygon class="cls-2" points="93.79 21.48 97.42 21.48 97.42 29.27 100.04 29.27 100.04 21.48 103.31 21.48 103.31 19 93.79 19 93.79 21.48"/><polygon class="cls-3" points="0 21.93 8.1 21.93 8.1 0.65 0 0.65 0 21.93 0 21.93"/><rect class="cls-4" x="8.1" y="21.93" width="10.81" height="7.33"/><rect class="cls-5" y="21.93" width="8.1" height="7.33"/><polygon class="cls-6" points="49.78 16.73 54.23 29.26 63.68 0.65 55.08 0.65 49.78 16.73"/><rect class="cls-7" x="23.7" y="15.84" width="8.08" height="13.43"/><polygon class="cls-8" points="23.7 8.44 23.7 8.44 31.78 8.44 31.78 8.44 31.78 0.65 23.7 0.65 23.7 8.44"/><rect class="cls-9" x="23.7" y="8.44" width="8.08" height="7.39"/><polygon class="cls-4" points="44.07 0.65 35.77 0.65 45.65 29.26 49.78 16.73 44.07 0.65"/><polygon class="cls-10" points="45.65 29.26 54.23 29.26 49.78 16.73 45.65 29.26"/><rect class="cls-11" x="75.46" y="11.75" width="10.75" height="6.81"/><polygon class="cls-3" points="67.85 0.65 67.85 11.74 75.44 11.74 75.44 7.49 86.21 7.49 86.21 0.65 67.85 0.65"/><polygon class="cls-4" points="67.85 18.53 67.85 29.26 86.21 29.26 86.21 22.44 75.44 22.44 75.44 18.53 67.85 18.53"/><rect class="cls-5" x="67.85" y="11.74" width="7.59" height="6.79"/><rect class="cls-7" x="217.33" y="0.53" width="15.33" height="6.34"/><rect class="cls-6" x="217.33" y="22.77" width="15.33" height="6.34"/><rect class="cls-12" x="217.33" y="11.16" width="12.12" height="6.16"/><rect class="cls-4" x="210.58" y="11.16" width="6.75"/><rect class="cls-4" x="210.58" y="17.32" width="6.75" height="5.44"/><polygon class="cls-4" points="210.58 6.87 210.58 11.16 217.33 11.16 217.33 6.86 210.58 6.86 210.58 6.87"/><rect class="cls-13" x="210.58" y="0.53" width="6.75" height="6.34"/><rect class="cls-10" x="210.58" y="22.77" width="6.75" height="6.34"/><rect class="cls-14" x="210.58" y="11.16" width="6.75" height="6.16"/><polygon class="cls-15" points="253.78 16.95 253.78 16.96 253.78 16.96 263.06 0.63 255.78 0.63 250.26 10.6 253.78 16.95 253.78 16.95"/><polygon class="cls-3" points="246.75 16.95 250.26 10.6 244.75 0.63 237.47 0.63 246.75 16.96 246.75 16.95 246.75 16.95"/><polygon class="cls-3" points="253.78 16.96 253.78 16.96 253.78 16.96 253.78 16.96"/><polygon class="cls-16" points="253.78 16.95 250.26 10.6 246.75 16.95 253.78 16.95"/><polygon class="cls-7" points="246.75 16.96 246.75 29.11 253.78 29.11 253.78 16.96 246.75 16.96 246.75 16.96"/><polygon class="cls-7" points="253.78 16.95 253.78 16.96 253.78 16.95 253.78 16.95"/><rect class="cls-7" x="246.75" y="16.95" height="0.01"/><polygon class="cls-7" points="246.75 16.95 246.75 16.96 253.78 16.96 253.78 16.96 253.78 16.95 246.75 16.95"/><path class="cls-17" d="M195.62,19.77a4.66,4.66,0,0,1-.76.08h-6.44l4,9.31h7.32Z"/><path class="cls-18" d="M145.32,13.52h0a8.43,8.43,0,0,1,8.39-7.11,8.66,8.66,0,0,1,7.52,3.78l5.11-3.43A15.48,15.48,0,0,0,153.59,0a15,15,0,0,0-14.84,13.45h6.58Z"/><path class="cls-3" d="M153.6,23.73a8.75,8.75,0,0,1-8.27-10.21h-6.58v-.05h0a14.91,14.91,0,0,0,15,16.35,14.59,14.59,0,0,0,14-10h-6.36a7.91,7.91,0,0,1-7.76,3.94"/><polygon class="cls-3" points="138.74 13.5 145.32 13.52 145.33 13.46 138.75 13.45 138.74 13.5"/><rect class="cls-8" x="176.57" y="19.85" width="6.35" height="9.31"/><rect class="cls-8" x="176.57" y="7.2" width="6.35" height="6.01"/><path class="cls-4" d="M152.41,14.24V19.8h9a10.76,10.76,0,0,0,.6-1.09,10.67,10.67,0,0,0,.85-4.14c0-.13,0-.23,0-.3Z"/><path class="cls-3" d="M162.8,14.26A10.6,10.6,0,0,1,162,18.7a10.91,10.91,0,0,1-.6,1.09h6.36a12.11,12.11,0,0,0,.64-2.59l0-.17a14.26,14.26,0,0,0,.17-2.76Z"/><path class="cls-19" d="M162.8,14.26c0,.06,0,.16,0,.3A10.67,10.67,0,0,1,162,18.7a10.91,10.91,0,0,1-.6,1.09h6.36a12.11,12.11,0,0,0,.64-2.59l0-.17a14.61,14.61,0,0,0,.18-2.22q0-.28,0-.54Z"/><rect class="cls-4" x="176.57" y="13.21" height="6.64"/><rect class="cls-4" x="176.57" y="0.53" height="6.68"/><path class="cls-4" d="M194.27.53H182.92V7.2h9.45c2,0,3.65.68,3.65,3,0,1.78-1,2.89-3.28,3l2.88,6.58c2.67-.48,7-3.37,7-9.58,0-7.37-5.81-9.66-8.33-9.66"/><polygon class="cls-4" points="185.58 13.21 182.92 13.21 182.92 19.85 188.43 19.85 185.58 13.21"/><path class="cls-17" d="M192.74,13.19l-.38,0h-6.79l2.85,6.64h6.44a4.77,4.77,0,0,0,.76-.08Z"/><path class="cls-20" d="M192.36,13.21h-6.79l2.85,6.64h6.44a4.51,4.51,0,0,0,.76-.08l-2.88-6.58-.38,0"/><rect class="cls-8" x="176.57" y="0.53" width="6.35" height="6.68"/><rect class="cls-21" x="176.57" y="0.53" width="6.35" height="6.68"/><rect class="cls-8" x="176.57" y="13.21" width="6.35" height="6.64"/><polygon class="cls-21" points="182.92 13.21 182.92 13.21 176.57 13.21 176.57 19.85 182.92 19.85 182.92 13.21"/></g></g></svg>